<?xml version="1.0" encoding="utf-8"?>
<!-- Generator: Adobe Illustrator 16.0.0, SVG Export Plug-In . SVG Version: 6.00 Build 0)  -->
<!DOCTYPE svg PUBLIC "-//W3C//DTD SVG 1.1//EN" "http://www.w3.org/Graphics/SVG/1.1/DTD/svg11.dtd">
<svg version="1.1" id="Layer_1" xmlns="http://www.w3.org/2000/svg" xmlns:xlink="http://www.w3.org/1999/xlink" x="0px" y="0px"
	 width="122.761px" height="112.313px" viewBox="0 0 122.761 112.313" enable-background="new 0 0 122.761 112.313"
	 xml:space="preserve">
<circle fill-rule="evenodd" clip-rule="evenodd" fill="#F7DFAD" cx="63.014" cy="55.359" r="50.206"/>
<g>
	<g>
		<path fill="#15A8B7" stroke="#15A8B7" stroke-width="2" stroke-miterlimit="10" d="M63.014,5.314
			c-27.641,0-50.046,22.404-50.046,50.045c0,27.639,22.405,50.045,50.046,50.045c27.639,0,50.045-22.406,50.045-50.045
			C113.059,27.719,90.653,5.314,63.014,5.314z M63.014,102.578c-26.079,0-47.221-21.141-47.221-47.219S36.935,8.141,63.014,8.141
			c26.078,0,47.219,21.14,47.219,47.218S89.092,102.578,63.014,102.578z"/>
		<path fill="#F7DFAD" d="M63.014,2.312c-29.3,0-53.048,23.749-53.048,53.048c0,29.297,23.748,53.048,53.048,53.048
			c29.297,0,53.048-23.751,53.048-53.048C116.062,26.061,92.311,2.312,63.014,2.312z M63.014,105.411
			c-27.644,0-50.054-22.409-50.054-50.052c0-27.644,22.41-50.052,50.054-50.052c27.643,0,50.052,22.408,50.052,50.052
			C113.066,83.002,90.657,105.411,63.014,105.411z"/>
	</g>
</g>
<circle fill-rule="evenodd" clip-rule="evenodd" fill="#DE4427" cx="63.014" cy="55.359" r="42.588"/>
<g>
	
		<text transform="matrix(0.7256 0 0 1 25.9204 74.6074)" fill="#993321" font-family="'HelveticaNeue-CondensedBold'" font-size="34.8722" letter-spacing="1.378">TRUMP</text>
	
		<text transform="matrix(0.7256 0 0 1 24.7563 73.4434)" fill="#FFFFFF" font-family="'HelveticaNeue-CondensedBold'" font-size="34.8722" letter-spacing="1.378">TRUMP</text>
</g>
<g>
	<g>
		<path fill="#FFFFFF" d="M89.412,79.754l-1.732,1.602l0.987,2.145l-2.06-1.154l-1.733,1.602l0.459-2.314l-2.06-1.154l2.346-0.277
			l0.462-2.317l0.988,2.145L89.412,79.754z"/>
		<path fill="#FFFFFF" d="M82.301,85.777l-2.083,1.109l0.412,2.324l-1.7-1.639l-2.083,1.108l1.031-2.122l-1.699-1.639l2.34,0.327
			l1.035-2.124l0.411,2.325L82.301,85.777z"/>
		<path fill="#FFFFFF" d="M73.898,89.792l-2.298,0.54l-0.196,2.353l-1.224-2.02l-2.298,0.54l1.539-1.788l-1.224-2.02l2.179,0.915
			l1.544-1.789l-0.197,2.353L73.898,89.792z"/>
		<path fill="#FFFFFF" d="M64.738,91.524l-2.359-0.06l-0.785,2.227l-0.673-2.264l-2.358-0.06l1.941-1.34l-0.672-2.264l1.875,1.437
			l1.946-1.34l-0.786,2.227L64.738,91.524z"/>
		<path fill="#FFFFFF" d="M55.455,90.893l-2.268-0.657l-1.325,1.954l-0.075-2.36l-2.268-0.657l2.219-0.803l-0.074-2.359l1.449,1.866
			l2.223-0.802l-1.326,1.954L55.455,90.893z"/>
		<path fill="#FFFFFF" d="M46.622,87.904l-2.022-1.215l-1.782,1.55l0.53-2.301l-2.023-1.215l2.351-0.208l0.53-2.301l0.924,2.174
			l2.354-0.206l-1.782,1.55L46.622,87.904z"/>
		<path fill="#FFFFFF" d="M38.86,82.777l-1.649-1.687l-2.116,1.048l1.096-2.092l-1.65-1.687l2.327,0.393l1.095-2.092l0.344,2.338
			l2.329,0.396l-2.115,1.049L38.86,82.777z"/>
		<path fill="#FFFFFF" d="M34.4,32.331l1.64-1.696l-1.108-2.086l2.122,1.036l1.64-1.697l-0.326,2.337l2.121,1.035l-2.326,0.41
			l-0.33,2.34l-1.107-2.085L34.4,32.331z"/>
		<path fill="#FFFFFF" d="M41.166,25.91l2.017-1.226l-0.542-2.298l1.789,1.541l2.017-1.226l-0.909,2.178l1.79,1.54l-2.354-0.194
			l-0.913,2.18l-0.542-2.299L41.166,25.91z"/>
		<path fill="#FFFFFF" d="M49.333,21.42l2.263-0.669l0.062-2.36l1.337,1.946l2.263-0.669l-1.436,1.873l1.338,1.946l-2.228-0.789
			l-1.439,1.874l0.062-2.36L49.333,21.42z"/>
		<path fill="#FFFFFF" d="M58.355,19.174l2.358-0.073l0.659-2.267l0.799,2.222l2.358-0.073l-1.863,1.447l0.799,2.222l-1.954-1.329
			l-1.867,1.447l0.66-2.267L58.355,19.174z"/>
		<path fill="#FFFFFF" d="M67.683,19.285l2.3,0.527l1.213-2.026l0.21,2.352l2.3,0.527l-2.169,0.928l0.209,2.352l-1.553-1.781
			l-2.174,0.926l1.213-2.026L67.683,19.285z"/>
		<path fill="#FFFFFF" d="M76.642,21.751l2.09,1.097l1.689-1.649l-0.397,2.327l2.089,1.097l-2.334,0.343l-0.397,2.328l-1.047-2.117
			l-2.338,0.341l1.689-1.649L76.642,21.751z"/>
		<path fill="#FFFFFF" d="M84.698,26.436l1.742,1.592l2.053-1.167l-0.975,2.15l1.742,1.591l-2.345-0.26l-0.976,2.15l-0.476-2.314
			l-2.348-0.264l2.053-1.167L84.698,26.436z"/>
	</g>
	<g>
		<path fill="#FFFFFF" d="M94.779,38.691v1.08H70.839c-0.305,0.721-0.725,1.381-1.254,1.984c-0.532,0.604-1.148,1.125-1.851,1.566
			c-0.701,0.441-1.472,0.783-2.308,1.025c-0.838,0.243-1.715,0.365-2.634,0.365c-0.917,0-1.794-0.122-2.632-0.365
			c-0.837-0.242-1.603-0.584-2.295-1.025c-0.693-0.441-1.305-0.963-1.836-1.566s-0.949-1.264-1.256-1.984H30.863v-1.08h23.561
			c-0.035-0.107-0.062-0.221-0.08-0.338c-0.019-0.116-0.036-0.229-0.054-0.337H36.101v-1.08h18.107c0-0.091,0.004-0.18,0.014-0.271
			c0.008-0.09,0.013-0.18,0.013-0.27H41.339v-1.053h13.084c0.217-0.864,0.582-1.661,1.094-2.39c0.514-0.729,1.139-1.359,1.877-1.89
			c0.738-0.531,1.566-0.949,2.484-1.256c0.918-0.306,1.89-0.459,2.915-0.459c1.026,0,1.999,0.153,2.917,0.459
			c0.918,0.307,1.745,0.725,2.483,1.256c0.738,0.53,1.364,1.16,1.877,1.89c0.513,0.729,0.878,1.525,1.094,2.39h13.139v1.053h-12.95
			c0.018,0.09,0.027,0.18,0.027,0.27c0,0.091,0,0.18,0,0.271h18.16v1.08H71.298c-0.018,0.108-0.031,0.221-0.04,0.337
			c-0.009,0.117-0.032,0.23-0.067,0.338H94.779z M62.793,44.199c1.099,0,2.134-0.189,3.105-0.566
			c0.972-0.379,1.823-0.891,2.552-1.539s1.301-1.404,1.715-2.268c0.414-0.865,0.621-1.791,0.621-2.781s-0.207-1.922-0.621-2.795
			s-0.986-1.633-1.715-2.281s-1.58-1.156-2.552-1.525s-2.007-0.554-3.105-0.554c-1.098,0-2.132,0.185-3.104,0.554
			c-0.972,0.369-1.818,0.877-2.538,1.525s-1.292,1.408-1.714,2.281c-0.424,0.873-0.635,1.805-0.635,2.795s0.211,1.916,0.635,2.781
			c0.422,0.863,0.994,1.619,1.714,2.268s1.566,1.16,2.538,1.539C60.662,44.01,61.696,44.199,62.793,44.199z M62.793,30.537
			c0.991,0,1.927,0.172,2.808,0.514c0.883,0.342,1.652,0.806,2.31,1.391s1.175,1.273,1.552,2.064
			c0.379,0.793,0.567,1.639,0.567,2.539s-0.188,1.741-0.567,2.523c-0.377,0.783-0.895,1.468-1.552,2.053s-1.427,1.049-2.31,1.391
			c-0.881,0.342-1.816,0.513-2.808,0.513c-1.008,0-1.948-0.171-2.821-0.513s-1.639-0.806-2.295-1.391
			c-0.657-0.585-1.174-1.27-1.552-2.053c-0.378-0.782-0.567-1.623-0.567-2.523s0.189-1.746,0.567-2.539
			c0.378-0.791,0.895-1.479,1.552-2.064c0.656-0.585,1.422-1.049,2.295-1.391S61.786,30.537,62.793,30.537z M62.793,43.065
			c0.937,0,1.814-0.157,2.634-0.472c0.818-0.316,1.533-0.748,2.146-1.297c0.611-0.549,1.093-1.188,1.443-1.917
			c0.352-0.729,0.526-1.507,0.526-2.335s-0.175-1.611-0.526-2.35c-0.351-0.738-0.832-1.381-1.443-1.931
			c-0.613-0.548-1.328-0.981-2.146-1.296c-0.819-0.314-1.697-0.473-2.634-0.473s-1.813,0.158-2.632,0.473
			c-0.819,0.314-1.53,0.748-2.133,1.296c-0.604,0.55-1.08,1.192-1.432,1.931c-0.351,0.738-0.526,1.521-0.526,2.35
			s0.176,1.605,0.526,2.335c0.352,0.729,0.828,1.368,1.432,1.917c0.603,0.549,1.313,0.98,2.133,1.297
			C60.98,42.908,61.857,43.065,62.793,43.065z M67.412,35.613l-2.269,2.214l0.513,3.132l-2.808-1.484l-2.835,1.484l0.54-3.132
			l-2.269-2.241l3.159-0.459l1.404-2.861l1.403,2.861L67.412,35.613z M64.144,37.558l1.296-1.242l-1.781-0.271l-0.811-1.619
			l-0.783,1.619l-1.809,0.243l1.296,1.27l-0.297,1.782l1.593-0.838l1.593,0.865L64.144,37.558z"/>
	</g>
</g>
</svg>
