<?xml version="1.0" encoding="utf-8"?>
<!-- Generator: Adobe Illustrator 16.0.0, SVG Export Plug-In . SVG Version: 6.00 Build 0)  -->
<!DOCTYPE svg PUBLIC "-//W3C//DTD SVG 1.1//EN" "http://www.w3.org/Graphics/SVG/1.1/DTD/svg11.dtd">
<svg version="1.1" id="Layer_1" xmlns="http://www.w3.org/2000/svg" xmlns:xlink="http://www.w3.org/1999/xlink" x="0px" y="0px"
	 width="139px" height="109.977px" viewBox="46.25 33 139 109.977" enable-background="new 46.25 33 139 109.977"
	 xml:space="preserve">
<g id="Layer_1_1_">
	<polyline fill="#FFFFFF" points="97.771,116.614 100.991,115.31 106.528,119.576 108.366,124.98 112.499,121.646 117.619,120.158 
		121.609,122.867 125.094,124.771 124.296,121.691 126.418,121.146 130.328,118.27 135.125,119.576 136.478,117.05 137.322,115.31 
		141.711,112.027 143.557,110.49 145.943,108.059 147.077,106.174 146.93,104.465 146.93,103.156 148.715,99.461 154.266,96.908 
		157.643,97.582 159.666,99.461 159.666,108.059 158.181,110.49 155.104,112.837 150.891,117.05 149.688,121.646 148.973,124.222 
		140.745,125.979 136.478,126.787 135.125,128.405 133.771,131.602 126.418,130.297 121.609,130.758 121.49,132.316 
		117.141,132.316 111.754,132.316 106.643,129.883 104.721,130.758 100.598,128.725 97.619,129.197 94.055,123.754 92.841,120.158 
		97.077,116.614 	"/>
	<polyline fill="#FFFFFF" points="79.084,66.29 75.831,74.129 77.458,80.033 81.659,79.492 84.195,79.357 87.622,77.301 
		91.822,68.881 93.246,65.206 96.559,65.206 99.702,60.89 102.831,58.424 105.45,57.857 107.555,58.424 109.881,57.47 
		114.797,55.973 120.08,55.491 127.266,57.528 132.801,59.374 137.717,61.339 139.715,62.082 145.221,58.424 143.97,52.658 
		138.842,48.748 132.801,48.154 128.076,45.202 124.838,45.202 120.08,43.447 112.416,46.507 107.151,46.507 101.486,46.507 
		94.055,50.802 86.553,57.929 78.573,66.29 	"/>
	<ellipse fill="#FFFFFF" cx="117.62" cy="88.899" rx="31.353" ry="31.429"/>
	<g>
		<g>
			<path fill="#9A3421" d="M61.157,120.197c1.382-4.993,2.762-9.988,4.132-14.98c-1.271-4.73-2.536-9.461-3.795-14.19
				c-2.741,0.263-5.504,0.419-8.295,0.456c1.49,4.838,2.99,9.676,4.506,14.506c-1.61,4.895-3.233,9.783-4.872,14.668
				C55.633,120.621,58.406,120.46,61.157,120.197z"/>
			<path fill="#9A3421" d="M178.145,59.786c-2.805,0.036-5.578,0.195-8.33,0.46c-1.393,4.995-2.783,9.989-4.166,14.986
				c1.285,4.714,2.561,9.431,3.834,14.146c2.74-0.266,5.505-0.426,8.297-0.465c-1.506-4.824-3.021-9.645-4.552-14.46
				C174.854,69.561,176.49,64.671,178.145,59.786z"/>
			<g>
				<polygon fill="none" points="102.215,51.991 100.594,50.215 99.702,50.293 102.019,52.832 				"/>
				<polygon fill="none" points="92.006,62.082 88.575,63.617 88.304,64.76 91.94,63.133 95.341,65.206 95.216,64.038 				"/>
				<polygon fill="none" points="86.018,72.125 86.116,72.983 88.707,70.724 87.828,70.547 				"/>
				<polygon fill="none" points="102.406,54.777 105.229,53.496 107.883,55.097 107.539,52.015 109.881,49.985 106.846,49.361 
					105.637,46.507 104.106,49.204 101.019,49.468 103.107,51.757 				"/>
				<polygon fill="none" points="79.833,71.782 78.207,70.012 77.313,70.091 79.638,72.625 				"/>
				<polygon fill="none" points="108.494,53.21 111.092,50.958 110.214,50.777 108.4,52.353 				"/>
				<polygon fill="none" points="105.176,54.417 101.752,55.971 101.486,57.116 105.114,55.471 108.526,57.528 108.396,56.357 				
					"/>
				<polygon fill="none" points="95.331,60.89 97.941,58.652 97.064,58.467 95.24,60.032 				"/>
				<polygon fill="none" points="80.033,74.566 82.852,73.28 85.51,74.871 85.157,71.792 87.492,69.755 84.455,69.14 83.239,66.29 
					81.716,68.988 78.627,69.262 80.724,71.546 				"/>
				<polygon fill="none" points="89.235,62.427 92.065,61.159 94.711,62.773 94.381,59.692 96.734,57.672 93.703,57.034 
					92.507,54.174 90.963,56.861 87.875,57.111 89.953,59.41 				"/>
				<polygon fill="none" points="89.057,59.64 87.446,57.857 86.553,57.929 88.856,60.48 				"/>
				<polygon fill="none" points="120.259,52.372 116.83,53.912 116.561,55.057 120.193,53.424 123.598,55.491 123.473,54.322 				
					"/>
				<polygon fill="none" points="134.967,56.258 131.527,57.779 131.252,58.92 134.896,57.311 138.287,59.401 138.168,58.231 				
					"/>
				<polygon fill="none" points="86.026,76.132 82.799,74.201 79.381,75.763 79.119,76.91 82.741,75.255 86.159,77.301 				"/>
				<polygon fill="none" points="138.298,55.084 140.918,52.857 140.04,52.669 138.209,54.224 				"/>
				<polygon fill="none" points="117.489,52.721 120.315,51.449 122.965,53.058 122.629,49.975 124.979,47.954 121.943,47.32 
					120.747,44.46 119.205,47.151 116.117,47.407 118.199,49.703 				"/>
				<polygon fill="none" points="132.193,56.59 135.029,55.337 137.667,56.963 137.354,53.88 139.715,51.873 136.686,51.219 
					135.506,48.353 133.949,51.033 130.855,51.269 132.926,53.578 				"/>
				<polygon fill="none" points="123.582,51.174 126.187,48.931 125.31,48.748 123.488,50.314 				"/>
				<polygon fill="none" points="117.306,49.934 115.691,48.154 114.797,48.227 117.106,50.775 				"/>
				<polygon fill="none" points="132.03,53.803 130.428,52.013 129.531,52.081 131.825,54.644 				"/>
				<polygon fill="none" points="115.452,130.277 112.023,131.818 111.754,132.963 115.387,131.33 118.791,133.396 118.665,132.227 
									"/>
				<polygon fill="none" points="140.947,120.941 143.766,119.649 146.426,121.239 146.068,118.16 148.402,116.119 145.364,115.51 
					144.145,112.658 142.624,115.359 139.539,115.639 141.637,117.918 				"/>
				<polygon fill="none" points="127.59,125.775 125.987,123.987 125.094,124.055 127.387,126.615 				"/>
				<polygon fill="none" points="130.527,128.232 127.088,129.753 126.81,130.895 130.454,129.285 133.846,131.377 133.729,130.207 
									"/>
				<polygon fill="none" points="140.745,118.156 139.117,116.389 138.225,116.467 140.553,118.998 				"/>
				<polygon fill="none" points="133.771,126.197 133.858,127.059 136.478,124.831 135.602,124.644 				"/>
				<polygon fill="none" points="150.153,108.801 152.98,107.531 155.629,109.137 155.295,106.058 157.643,104.033 154.609,103.4 
					153.408,100.541 151.869,103.232 148.779,103.49 150.863,105.785 				"/>
				<polygon fill="none" points="156.246,107.254 158.852,105.009 157.973,104.828 156.154,106.395 				"/>
				<polygon fill="none" points="146.93,118.492 147.03,119.35 149.619,117.088 148.739,116.91 				"/>
				<polygon fill="none" points="143.715,120.572 140.298,122.137 140.035,123.284 143.658,121.626 147.077,123.668 
					146.942,122.498 				"/>
				<polygon fill="none" points="152.922,108.451 149.494,109.994 149.225,111.137 152.859,109.506 156.265,111.57 156.137,110.4 
									"/>
				<polygon fill="none" points="149.969,106.015 148.355,104.235 147.461,104.309 149.771,106.855 				"/>
				<polygon fill="none" points="97.771,123.99 96.14,122.227 95.247,122.311 97.582,124.834 				"/>
				<polygon fill="none" points="100.748,126.396 97.335,127.973 97.077,129.119 100.694,127.453 104.119,129.484 103.98,128.316 
									"/>
				<polygon fill="none" points="97.98,126.773 100.796,125.476 103.46,127.059 103.096,123.98 105.425,121.936 102.384,121.332 
					101.158,118.484 99.645,121.188 96.559,121.475 98.663,123.75 				"/>
				<polygon fill="none" points="103.957,124.31 104.059,125.168 106.643,122.898 105.764,122.727 				"/>
				<polygon fill="none" points="127.754,128.564 130.59,127.312 133.229,128.938 132.914,125.855 135.276,123.848 132.246,123.194 
					131.066,120.328 129.508,123.008 126.418,123.242 128.485,125.553 				"/>
				<polygon fill="none" points="112.684,130.627 115.508,129.355 118.158,130.963 117.822,127.883 120.17,125.859 117.138,125.227 
					115.94,122.368 114.4,125.057 111.311,125.314 113.393,127.609 				"/>
				<polygon fill="none" points="112.499,127.84 110.885,126.059 109.991,126.135 112.301,128.681 				"/>
				<polygon fill="none" points="118.682,128.221 118.776,129.08 121.381,126.838 120.502,126.654 				"/>
				<path fill="#3F2C1B" d="M116.082,120.064c-6.291-0.39-12.028-2.618-16.732-6.119c-5.957,2.111-12.117,4.102-18.426,5.754
					l0.013,1.883l5.905,0.773l1.196,5.836l5.942-0.395l2.311,5.493l5.751-1.551l3.344,4.929l5.336-2.648l4.24,4.184l4.723-3.631
					l4.969,3.285l3.926-4.48l5.516,2.246l2.968-5.164l5.85,1.119l1.902-5.646l5.956-0.038l0.771-5.908l5.837-1.192l-0.392-5.944
					l5.488-2.311l-1.55-5.75l4.93-3.344l-2.648-5.337l3.354-3.397c-6.171,0.838-12.262,2.164-18.215,3.793
					C144.738,110.822,131.356,121.008,116.082,120.064z M114.4,125.057l1.54-2.688l1.197,2.857l3.032,0.635l-2.348,2.022
					l0.336,3.081l-2.649-1.607l-2.825,1.27l0.71-3.016l-2.083-2.296L114.4,125.057z M99.645,121.188l1.513-2.703l1.226,2.848
					l3.041,0.604l-2.329,2.045l0.364,3.078l-2.665-1.584l-2.815,1.299l0.683-3.025l-2.104-2.273L99.645,121.188z M95.247,122.311
					l0.893-0.086l1.631,1.766l-0.189,0.842L95.247,122.311z M100.694,127.453l-3.617,1.666l0.26-1.146l3.412-1.576l3.233,1.92
					l0.139,1.168L100.694,127.453z M104.059,125.168l-0.102-0.858l1.807-1.584l0.879,0.173L104.059,125.168z M109.991,126.135
					l0.894-0.076l1.613,1.781l-0.197,0.841L109.991,126.135z M115.387,131.33l-3.633,1.633l0.269-1.145l3.429-1.539l3.213,1.949
					l0.127,1.168L115.387,131.33z M118.776,129.08l-0.094-0.859l1.819-1.566l0.879,0.184L118.776,129.08z M129.508,123.008
					l1.559-2.68l1.18,2.865l3.03,0.654l-2.362,2.008l0.314,3.083l-2.639-1.626l-2.836,1.252l0.731-3.012l-2.067-2.312
					L129.508,123.008z M125.987,123.987l1.603,1.788l-0.203,0.84l-2.293-2.561L125.987,123.987z M130.454,129.285l-3.644,1.609
					l0.277-1.142l3.439-1.519l3.201,1.973l0.117,1.17L130.454,129.285z M133.858,127.059l-0.087-0.861l1.83-1.555l0.876,0.188
					L133.858,127.059z M148.355,104.235l1.613,1.779l-0.199,0.84l-2.309-2.546L148.355,104.235z M142.624,115.359l1.521-2.701
					l1.22,2.852l3.037,0.609l-2.333,2.041l0.357,3.079l-2.661-1.59l-2.818,1.292l0.69-3.023l-2.099-2.279L142.624,115.359z
					 M139.117,116.389l1.628,1.768l-0.192,0.842l-2.328-2.531L139.117,116.389z M143.658,121.626l-3.623,1.658l0.263-1.146
					l3.417-1.566l3.228,1.927l0.135,1.169L143.658,121.626z M147.03,119.35l-0.101-0.857l1.81-1.582l0.88,0.178L147.03,119.35z
					 M152.859,109.506l-3.635,1.632l0.27-1.144l3.428-1.541l3.214,1.949l0.128,1.169L152.859,109.506z M158.852,105.009
					l-2.605,2.245l-0.092-0.859l1.818-1.566L158.852,105.009z M151.869,103.232l1.539-2.69l1.201,2.859l3.033,0.632l-2.348,2.025
					l0.334,3.08l-2.648-1.607l-2.827,1.27l0.711-3.016l-2.083-2.293L151.869,103.232z"/>
				<path fill="#3F2C1B" d="M119.938,57.578c6.723,0.415,12.811,2.933,17.685,6.862c5.681-1.877,11.521-3.587,17.481-4.944
					l-0.021-3.438l-5.907-0.769l-1.192-5.838l-5.943,0.394l-2.311-5.49l-5.752,1.55l-3.344-4.93l-5.335,2.649l-4.242-4.184
					l-4.724,3.63l-4.967-3.284l-3.925,4.48l-5.517-2.246l-2.968,5.166l-5.851-1.119l-1.901,5.643l-5.956,0.039l-0.771,5.905
					l-5.836,1.194l0.393,5.944l-5.491,2.31l1.55,5.75l-4.931,3.343l2.648,5.337l-4.182,4.241l0.855,1.112
					c6.072-1.082,12.042-2.59,17.866-4.339C90.412,67.492,104.165,56.606,119.938,57.578z M120.193,53.424l-3.633,1.633l0.269-1.145
					l3.43-1.54l3.213,1.95l0.125,1.169L120.193,53.424z M134.896,57.311l-3.644,1.61l0.275-1.142l3.439-1.52l3.201,1.973
					l0.119,1.169L134.896,57.311z M140.04,52.669l0.878,0.188l-2.62,2.227l-0.087-0.86L140.04,52.669z M133.949,51.033l1.557-2.682
					l1.18,2.867l3.029,0.653l-2.361,2.008l0.313,3.083l-2.638-1.625l-2.836,1.252l0.732-3.013l-2.07-2.309L133.949,51.033z
					 M130.428,52.013l1.603,1.79l-0.205,0.84l-2.292-2.563L130.428,52.013z M125.31,48.748l0.877,0.183l-2.604,2.243l-0.094-0.859
					L125.31,48.748z M119.205,47.151l1.542-2.69l1.196,2.86l3.035,0.634l-2.35,2.021l0.336,3.083l-2.648-1.609l-2.826,1.273
					l0.709-3.019l-2.082-2.296L119.205,47.151z M115.691,48.154l1.614,1.781l-0.199,0.841l-2.311-2.549L115.691,48.154z
					 M105.114,55.471l-3.628,1.645l0.266-1.145l3.424-1.554l3.219,1.94l0.131,1.17L105.114,55.471z M111.092,50.958l-2.598,2.252
					l-0.094-0.857l1.814-1.576L111.092,50.958z M104.106,49.204l1.53-2.697l1.209,2.855l3.035,0.624l-2.342,2.03l0.344,3.082
					l-2.654-1.602l-2.823,1.281l0.702-3.02l-2.089-2.289L104.106,49.204z M100.594,50.215l1.621,1.776l-0.196,0.84l-2.317-2.538
					L100.594,50.215z M91.94,63.133l-3.637,1.627l0.271-1.144l3.432-1.536l3.209,1.957l0.125,1.167L91.94,63.133z M88.707,70.724
					l-2.59,2.26l-0.099-0.858l1.811-1.579L88.707,70.724z M97.941,58.652l-2.61,2.238l-0.091-0.859l1.825-1.564L97.941,58.652z
					 M90.963,56.861l1.544-2.688l1.195,2.861l3.032,0.638l-2.353,2.019l0.33,3.082l-2.646-1.613l-2.83,1.267l0.717-3.017
					l-2.079-2.298L90.963,56.861z M81.719,68.934l1.544-2.687l1.195,2.86l3.033,0.638l-2.353,2.019l0.33,3.082l-2.646-1.613
					l-2.83,1.267l0.717-3.017l-2.079-2.298L81.719,68.934z M87.446,57.857l1.612,1.784l-0.201,0.84l-2.304-2.552L87.446,57.857z
					 M78.207,70.012l1.625,1.77l-0.194,0.843l-2.325-2.534L78.207,70.012z M79.119,76.91l0.263-1.147l3.417-1.562l3.228,1.932
					l0.133,1.169l-3.418-2.046L79.119,76.91z"/>
			</g>
		</g>
		<g>
			<path fill="#EAE9EB" d="M138.842,59.418c-0.044,0.169-0.139,0.028-0.283,0.046C138.6,59.376,138.766,59.338,138.842,59.418z"/>
			<path fill="#EAE9EB" d="M138.138,60.073c-0.06,0.111,0.007,0.087-0.046,0.235c-0.109-0.078-0.398,0.024-0.374-0.188
				C137.793,60.042,137.992,60.083,138.138,60.073z"/>
			<path fill="#EAE9EB" d="M88.264,63.773c0.061,0.017,0.073,0.082,0.139,0.094c-0.07,0.109-0.114,0.071-0.234,0.047
				C88.187,63.854,88.252,63.84,88.264,63.773z"/>
			<path fill="#EAE9EB" d="M121.606,67.379c0.023,0.146-0.1,0.15-0.235,0.14C121.416,67.438,121.461,67.357,121.606,67.379z"/>
			<path fill="#EAE9EB" d="M82.363,67.941c0.068,0.041,0.181,0.038,0.139,0.188c-0.077,0-0.156,0-0.234,0
				C82.293,68.059,82.339,68.011,82.363,67.941z"/>
			<path fill="#EAE9EB" d="M81.614,68.69c0.076-0.013,0.081,0.044,0.141,0.047c0.014,0.123-0.065,0.154-0.188,0.141
				C81.547,68.78,81.599,68.754,81.614,68.69z"/>
			<path fill="#EAE9EB" d="M81.005,69.628c-0.083,0.087-0.138-0.02-0.234-0.047C80.775,69.441,81.05,69.455,81.005,69.628z"/>
			<path fill="#EAE9EB" d="M81.661,69.956c0.076-0.075,0.148-0.019,0.234,0c-0.029,0.041-0.056,0.084,0,0.093
				c-0.014,0.063-0.116,0.038-0.187,0.047C81.71,70.03,81.715,69.963,81.661,69.956z"/>
			<path fill="#EAE9EB" d="M82.831,70.377c-0.042,0.081-0.164,0.121-0.235,0.046C82.602,70.305,82.771,70.312,82.831,70.377z"/>
			<path fill="#EAE9EB" d="M85.547,70.377c0.177,0.041,0.02,0.173-0.047,0.234C85.359,70.554,85.534,70.432,85.547,70.377z"/>
			<path fill="#EAE9EB" d="M79.366,71.032c0,0.062,0,0.126,0,0.187c-0.094-0.056-0.2-0.038-0.235,0
				C79.01,71.14,79.205,70.983,79.366,71.032z"/>
			<path fill="#EAE9EB" d="M87.608,71.36c0.071,0.166-0.16,0.028-0.141,0.14c-0.051-0.011-0.031-0.093-0.093-0.093
				C87.417,71.25,87.46,71.383,87.608,71.36z"/>
			<path fill="#EAE9EB" d="M85.734,71.688c0.046-0.002,0.037-0.058,0.047-0.094c0.11,0.013,0.027,0.207,0,0.235
				c-0.106,0.063-0.176-0.121-0.187,0c-0.062-0.031-0.087-0.1-0.094-0.188C85.62,71.692,85.742,71.481,85.734,71.688z"/>
			<path fill="#EAE9EB" d="M79.506,72.156c0,0.078,0,0.157,0,0.235c-0.147-0.009-0.344,0.032-0.422-0.046
				C79.177,72.232,79.287,72.139,79.506,72.156z"/>
			<path fill="#EAE9EB" d="M80.49,72.578c0.003,0.073-0.023,0.179,0.047,0.188C80.274,72.971,80.056,72.506,80.49,72.578z"/>
			<path fill="#EAE9EB" d="M85.968,72.766c0.04,0.132-0.064,0.121-0.045,0.233c-0.149,0.041-0.145-0.074-0.234-0.093
				C85.754,72.831,85.85,72.786,85.968,72.766z"/>
			<path fill="#EAE9EB" d="M84.142,73.093c0.103-0.008,0.021,0.166,0.047,0.234c-0.062,0-0.124,0-0.187,0
				C83.942,73.142,84.139,73.214,84.142,73.093z"/>
			<path fill="#EAE9EB" d="M87,73.233c-0.005,0.119-0.068,0.182-0.187,0.188C86.817,73.301,86.88,73.239,87,73.233z"/>
			<path fill="#EAE9EB" d="M79.6,73.374c0.07,0.04,0.101,0.118,0.092,0.234c-0.11,0.001-0.137-0.081-0.279-0.047
				C79.378,73.401,79.585,73.483,79.6,73.374z"/>
			<path fill="#EAE9EB" d="M80.771,73.702c0,0.078,0,0.157,0,0.235c-0.058-0.053-0.095-0.041-0.093,0.046
				c-0.099-0.114-0.209,0.041-0.282-0.046C80.389,73.727,80.623,73.756,80.771,73.702z"/>
			<path fill="#EAE9EB" d="M83.534,73.982c-0.04,0.101-0.115,0.165-0.281,0.14C83.224,73.948,83.423,73.877,83.534,73.982z"/>
			<path fill="#EAE9EB" d="M82.503,74.685c0.231-0.046,0.122,0.176,0.188,0.187c0.007,0.102-0.166,0.022-0.235,0.046
				C82.441,74.811,82.465,74.739,82.503,74.685z"/>
			<path fill="#EAE9EB" d="M85.126,74.825c0.062,0,0.125,0,0.187,0c0,0.062,0,0.125,0,0.188
				C85.167,75.034,85.105,74.972,85.126,74.825z"/>
			<path fill="#EAE9EB" d="M161.93,100.396c0.027,0.171-0.371,0.212-0.33,0C161.737,100.471,161.723,100.31,161.93,100.396z"/>
			<path fill="#EAE9EB" d="M80.161,70.189c0.079,0.009-0.021,0.222-0.14,0.187c0-0.062,0-0.125,0-0.187
				C80.102,70.18,80.143,70.269,80.161,70.189z"/>
			<path fill="#EAE9EB" d="M82.457,73.515c-0.007,0.119-0.067,0.18-0.188,0.187c-0.036-0.042-0.05-0.105-0.046-0.187
				c-0.04-0.009-0.043,0.018-0.046,0.046C82.025,73.479,82.412,73.416,82.457,73.515z"/>
			<path fill="#EAE9EB" d="M79.928,74.498c-0.157,0.136,0.116,0.233,0,0.328c-0.113,0.02-0.101-0.085-0.235-0.046
				c-0.038-0.009-0.042,0.017-0.045,0.046C79.602,74.762,79.782,74.526,79.928,74.498z"/>
		</g>
	</g>
	<g>
		<path fill="#DE4628" d="M86.268,88.846c0-1.54,0.116-3.053,0.331-4.534c-7.778,2.284-15.815,4.132-24.015,5.094
			c1.387,5.208,2.78,10.414,4.181,15.619l0.051,0.194l-0.053,0.192c-1.504,5.48-3.015,10.959-4.534,16.438
			c12.248-1.466,24.163-4.93,35.389-8.863C90.685,107.236,86.268,98.558,86.268,88.846z"/>
		<path fill="#DE4628" d="M164.175,75.424l-0.054-0.196l0.055-0.194c1.517-5.483,3.039-10.963,4.568-16.442
			c-10.317,1.233-20.404,3.888-30.043,7.046c6.309,5.736,10.271,14.009,10.271,23.208c0,2.098-0.211,4.146-0.604,6.129
			c6.531-1.77,13.222-3.189,20.021-3.992C166.992,85.794,165.586,80.607,164.175,75.424z"/>
	</g>
</g>
<g id="Layer_2">
	<g>
		<g>
			<defs>
				<circle id="SVGID_1_" cx="118.469" cy="89.643" r="31.219"/>
			</defs>
			<clipPath id="SVGID_2_">
				<use xlink:href="#SVGID_1_"  overflow="visible"/>
			</clipPath>
			<g clip-path="url(#SVGID_2_)">
				<path fill="#DE8E2A" d="M104.547,78.042c0,0-0.437-0.312-0.608-0.412c-0.172-0.099-0.518-0.244-0.518-0.244
					s0.541,1.255-0.197,1.982c0,0-0.074,0.513-0.221,0.734c0,0,0.122,0.906,0.073,1.371c-0.049,0.464-0.542,1.224-0.295,1.321
					c0,0-0.221,0.097-0.147,0.391c0.074,0.293,0.074,0.881,0.074,0.881s-0.197-0.465-0.37-0.71
					c-0.172-0.245-0.417-0.791-0.333-1.114c0.083-0.324,0.629-1.953,0.567-3.342c-0.062-1.392-0.294-2.082,0.382-2.077
					C103.629,76.827,104.308,76.479,104.547,78.042z"/>
				<path fill="#DE8E2A" d="M104.051,82.234c0,0-0.407,0.509-0.703,1.244c-0.295,0.734-0.394,1.346-0.467,1.59
					c-0.075,0.245,0.048,0.489,0.024,0.687c-0.024,0.195-0.024,0.316-0.024,0.316s1.01-0.686,1.206-1.003L104.051,82.234z"/>
				<path fill="#FEEBDD" d="M102.782,86.879c0,0-0.074,0.882,0.222,1.077c0.295,0.195,0.91,0.488,0.91,0.488
					S101.772,89.008,102.782,86.879z"/>
				<path fill="#FEEBDD" d="M104.086,89.082c0.123,0.147,0.64,0.783,0.862,0.856C105.17,90.012,104.133,90.514,104.086,89.082z"/>
				<path fill="#000002" d="M102.979,86.609c0,0-1.109,0.295-1.28,1.249c-0.172,0.955,0.738,2.374,0.837,4.013
					c0,0,0.566-0.269,0.074-1.958C102.117,88.225,101.699,87.858,102.979,86.609z"/>
				<path fill="#DBDCDC" d="M99.994,95.742c0.09,0.053-0.58-0.402-0.75-0.451c-0.173-0.05-0.099,0.416,0.012,0.686
					c0.112,0.268,0.321,0.574,0.321,0.574L99.994,95.742z"/>
				<path fill="#46498D" d="M97.356,96.215c0,0-0.584,3.093-1.063,4.422c-0.479,1.328-1.749,4.088-1.852,5.076
					c-0.102,0.987-0.376,1.975,0.31,2.963c0.687,0.988,1.406,2.453,1.988,3.033c0.582,0.578,0.924,0.681,0.924,0.681
					s-0.103-0.647-0.239-2.452c-0.137-1.806-0.548-5.247-0.104-6.984c0.447-1.736,1.482-5.039,1.482-5.039
					S98.265,96.457,97.356,96.215z"/>
				<path fill="#1D2851" d="M98.57,97.414l1.006,1.119c0,0,0.051,1.771,0.582,2.963c0.532,1.192,1.543,3.152,1.371,3.39
					c-0.171,0.237-0.617,0.733-1.148,0.086c-0.531-0.647-0.513-0.426-0.531-0.118c-0.018,0.305-0.068,1.854-0.086,1.973
					c-0.018,0.12-1.56-1.24-1.577-1.105c-0.018,0.135,0,2.025,0.137,2.689c0.137,0.665,0.789,2.352,1.491,2.846
					c0.704,0.494,0.909,0.749,0.909,0.749s-0.155,0.239-1.165,0.341c-1.012,0.102-1.92-0.15-1.92-0.15s-0.959-1.621-1.404-3.02
					c-0.446-1.396-0.395-2.586-0.395-2.723s0.771,2.641,1.028,2.998c0,0-0.188-2.607-0.171-3.646
					c0.017-1.037,0.052-1.889,0.292-2.98C97.227,101.736,98.341,98.959,98.57,97.414z"/>
				<path fill="#1D2A53" d="M98.555,106.705c0.159,0.195,1.013,1.479,1.232,1.795c0.218,0.315,0.894,1.401,1.073,1.56
					c0.179,0.159-0.894-0.315-1.053-0.591C99.647,109.191,98.555,106.705,98.555,106.705z"/>
				<g>
					<path fill="#FDC99F" d="M129.271,76.818l-0.391-2.048c0,0-1.477,0.561-2.974,0.927c-1.496,0.366-2.364,1.013-3.776,0.668
						c-1.409-0.345-3.168-0.604-3.667-0.087c-0.498,0.518-0.455,2.695-0.259,3.407c0.193,0.712-0.045,2.61-0.501,3.731
						c-0.456,1.122-0.997,4.357-0.39,6.167c0.607,1.812,2.43,3.213,2.562,3.559c0.13,0.344,0.238,0.906,0.238,0.906
						s1.127,0.818,1.887,0.754c0.76-0.062,1.148-0.171,2.451-0.41c1.303-0.236,3.799-1.465,4.73-2.068
						c0.936-0.605,2.713-2.825,2.647-3.818c-0.064-0.991-0.693-4.679-0.932-5.843C130.658,81.499,129.942,77.486,129.271,76.818z"/>
					<path fill="#FDC99F" d="M115.828,80.496c0,0,1.541,1.099,1.714,1.509c0.174,0.411-0.867,2.976-1.042,3.687
						c-0.174,0.713,0.217,4.292,0.5,5.24c0.282,0.951,0.303,1.553,0.152,1.619c-0.152,0.064-1.043-0.518-1.715-1.294
						c-0.673-0.776-0.889-1.079-0.867-1.64c0.021-0.561,0.39-2.177,0.934-2.846c0,0,0.194-1.51,0.605-2.48
						c0.414-0.971,0.436-1.143,0.436-1.143s-0.911,0.043-1.149-0.625c-0.239-0.668-0.044-1.617-0.044-1.617L115.828,80.496z"/>
					<path fill="#FDC99F" d="M131.986,78.991c0,0,0.186,0.916,0.164,1.089s-0.717,0.356-0.728,0.646
						c-0.011,0.292,0.065,0.971,0.445,1.014c0.38,0.043,0.737,0.043,0.89-0.194c0.15-0.237,0.487-0.593,0.521-0.69
						c0.032-0.096,0.161-0.538-0.067-1.121c-0.226-0.582-0.27-0.646-0.27-0.646L131.986,78.991z"/>
					<path fill="#FED23B" d="M130.697,72.328c0,0-0.086,1.293-0.237,1.337c-0.155,0.043-0.804-0.064-0.804,0.626
						c0,0.689,1.215,2.501,1.302,2.716c0.086,0.216-0.132,0.864-0.132,1.229c0,0.367,0.174,2.092,0.238,2.287
						c0.066,0.194,0.469-0.005,0.58-0.076c0.11-0.071,0.113-1.413,0.113-1.413s0.738,0.065,1.184,0.054s0.967-0.42,0.967-0.42
						s-1.322-0.021-1.541-0.259c-0.217-0.238-0.195-0.454-0.195-0.454s1.15,0.087,1.823-0.259c0.673-0.345,0.109-0.775,0.109-0.775
						s-1.171-0.109-1.411-1.294c-0.24-1.186,0-2.027-0.304-2.415C132.086,72.824,131.043,72.047,130.697,72.328z"/>
					<path fill="#FED23B" d="M114.293,81.665c0,0,0.043-0.927,0.281-1.639c0.238-0.711,0.543-1.747,0.543-1.747l-1.259,0.841
						c0,0,0.411-1.208,0.954-1.617c0.543-0.411,0.543-0.411,0.543-0.411s-1.54,0.108-2.322-0.927c0,0,1.194-0.021,1.628-0.108
						c0.435-0.086,1.151-0.302,1.345-0.69c0.196-0.387,0.847-0.107,0.804,0.215c-0.042,0.324-0.368,3.235-0.434,3.732
						c-0.067,0.496-0.31,0.976-0.548,1.181C115.588,80.7,114.38,81.902,114.293,81.665z"/>
					<path fill="#FED23B" d="M131.109,71.206c0,0-0.066-1.25-1.412-2.328c-1.346-1.079-4.426-1.617-6.703-1.337
						c-2.279,0.279-4.84,0.797-6.51,2.027c-1.674,1.229-3.625,2.048-5.296,1.703c-1.67-0.345-3.276-1.553-3.276-1.553
						s0.13,0.754,1.171,1.51c1.041,0.754,3.775,2.76,5.858,3.104c2.085,0.345,4.016,0.733,5.339,0.668
						c1.322-0.064,7.396-1.271,8.811-2.027C130.502,72.22,131.109,71.206,131.109,71.206z"/>
					<path fill="#DE8E2A" d="M130.297,69.455c0,0,0.406,1.282,0.091,2.199c0,0-0.61-0.809-1.562-1.154
						c-0.956-0.344-3.007-0.646-3.614-0.755c-0.607-0.108-1.842-0.086-2.157-0.042c-0.314,0.042,1.041,0.258,1.214,0.377
						c0.174,0.119,0.77,0.819,1.823,1.294s1.519,0.959,1.649,1.153c0.129,0.194,0.053,0.248-0.314,0.065
						c-0.369-0.184-2.723-1.316-3.603-1.511c-0.878-0.193-1.638-0.366-2.841-0.42c-1.205-0.054-1.889,0.086-1.889,0.086
						s1.388,0.13,1.92,0.13c0.531,0,0.705,0.27,1.562,0.453s1.01,0.226,1.529,0.507c0.521,0.281,0.988,0.637,0.988,0.637
						s-1.943-0.033-2.615-0.076c-0.67-0.042-2.396-0.96-2.396-0.96s0.674,0.507,1.148,0.885c0.479,0.378,0.76,0.518,1.346,0.755
						c0.587,0.237,1.586,0.334,1.586,0.388c0,0.053-0.479,0.312-1.477,0.42c-0.998,0.109-2.495,0.226-3.006,0.302
						c-0.509,0.076-1.246-0.205-1.246-0.205s-1.981-0.899-2.523-1.374s-0.738-0.583-0.738-0.583s0.293,0.767,0.532,1.047
						c0.239,0.279,0.282,0.366,0.11,0.344c-0.175-0.021-1.66-0.561-1.66-0.561s0.65,0.981,1.17,1.337c0,0-1.246-0.248-2.549-0.949
						c-1.301-0.701-3.006-1.768-3.493-2.124c-0.488-0.355-1.187-1.272-1.187-1.272l-0.755-0.398c0,0,0.325,0.916,1.161,1.704
						c0.834,0.787,2.288,1.897,3.069,2.296s2.43,1.327,2.887,1.596c0.456,0.27,1.181,0.528,1.394,0.522
						c0.212-0.005,0.189-0.048,0.189-0.048s0.065,0.657-0.575,0.874c-0.639,0.215-0.684,0.366-1.139,0.291
						c-0.456-0.076-1.178-0.381-1.178-0.381s0.975,0.951,1.928,0.79c0.955-0.162,1.496-0.442,1.496-0.442l-0.044,0.324
						c0,0-2.026,1.199-2.603,1.969l-0.066,0.177l2.051-1.283c0,0-0.043,0.27-0.324,0.646c-0.283,0.378-0.229,0.689-0.229,0.689
						s-0.119,0.637-0.207,1.004l0.619-0.453c0,0,0.271-0.162,0,0.14c-0.271,0.302-0.634,0.596-0.477,0.776
						c0.155,0.18,0.297,0.059,0.297,0.059l0.168,0.005c0,0-0.185,0.432,0.056,0.496c0.237,0.065,0.434,0.033,0.531,0.172
						c0.097,0.141-0.098,0.345-0.098,0.345s0.032,0.421,0.131,0.625c0.097,0.205,0.032,0.335-0.229,0.281
						c-0.26-0.055-0.753-0.103-0.753-0.103s0.5,0.712,0.864,0.607c0.367-0.106,0.334-0.084,0.367-0.235
						c0.031-0.15,0.184-0.959,0.184-0.959s0.363,0.17,0.498,0.507c0.137,0.335-0.707,1.954-0.977,3.018
						c-0.266,1.064,0.088,3.581,0.088,3.581l-0.955-1.058c0,0,0.478,1.919,0.846,2.738c0.369,0.818,0.564,1.1,0.564,1.1
						s-0.26,0.064-0.672-0.194c-0.413-0.257-0.425-0.011-0.425-0.011s1.163,1.435,2.095,1.78c0.936,0.344,2.777,0.774,2.777,0.774
						s0.152-0.669-0.261-0.971c-0.412-0.301-1.888-1.83-2.387-3.018c-0.499-1.186-1.021-2.912-0.521-4.896
						c0,0,0.541-1.186,0.672-2.199c0,0,0.564-1.272,1.193-1.833c0.63-0.561,0.63-0.561,1.194-0.668
						c0.563-0.107,0.737-0.172,0.845-0.517c0.109-0.345,0.436-0.669,0.436-0.669s-0.066,0.885,0.195,0.949
						c0.26,0.065,0.498-0.107,0.498-0.366v-1.156c0.299-0.092,0.86-0.253,0.928-0.057c0.086,0.249,0.169,0.943,0.169,0.943
						s0.347,0.583,0.13,0.755c-0.217,0.173-0.793,0.194-0.793,0.194c0.218,0.086,0.793,0,0.793,0c-0.088,0.281,0,0.646,0,0.646
						s-0.262-0.108-0.521,0.129c-0.259,0.238-0.521,0.454-0.631,0.281c-0.108-0.172-0.543-0.281-0.543-0.281
						s0.066-0.302,0.132-0.495c0.065-0.194-0.162-0.594-0.5-0.259c-0.335,0.334-0.237,0.906-0.237,0.906s-0.694,1.487-0.888,1.876
						c-0.197,0.388-0.98,1.53-1.367,2.005c-0.392,0.476-0.48,0.798-0.349,1.576c0.13,0.776,0.673,1.358,0.544,1.078
						c-0.133-0.281-0.11-0.884,0.149-1.595c0.263-0.712,0.694-1.467,1.237-2.179c0.544-0.711,0.869-1.812,0.91-1.66
						c0.045,0.151-0.063,0.928-0.236,1.595c-0.174,0.668-0.262,1.746-0.195,1.875c0.065,0.131,0.26-0.279,0.498-0.667
						s0.411-1.552,0.478-2.092c0.065-0.539,0.543-0.388,0.543-0.388s0.39,0.109,0.823-0.042s0.455-0.496,0.588-0.711
						c0.129-0.216,0.303-0.216,0.432-0.022c0.133,0.193,1.13,0.712,1.237,0.97c0.11,0.259,0.521,0.927,0.521,0.927
						s0.028-0.339-0.329-1.354c-0.358-1.013-1.161-1.218-1.161-1.218s0.053-0.097-0.021-0.582c-0.076-0.485-0.564-0.55-0.564-0.55
						s-0.065-0.313-0.012-0.733c0.055-0.421,0.531-0.399,0.707-0.54c0.172-0.139,0.042-0.462-0.25-0.667
						c-0.293-0.206-0.402-0.292-0.859-0.292c-0.454,0-0.678-0.454-0.678-0.454c-0.029-0.091-0.056-0.169-0.074-0.22
						c-0.088-0.237-0.131-0.323-0.262-0.172c-0.129,0.152-0.305,0.367-0.477,0.216c-0.173-0.151-0.324,0.042-0.89,0.409
						c-0.563,0.367-0.608,0.345-0.608,0.345s-0.238,0.69-0.238,1.121c0,0.432-0.586,0.906-1.107,0.927
						c-0.521,0.021-0.998-0.366-1.107-0.905c-0.107-0.539,0.262-2.027,0.262-2.027l-0.237-0.582c0,0,0.562-0.296,0.823-0.583
						c0,0,0.805-0.042,1.13,0.13c0.323,0.172,1.063,0.301,1.669,0.365c0.608,0.065,1.194,0.13,1.736-0.021
						c0.543-0.15,0.867-0.56,1.52-0.667c0.65-0.108,2.474-0.518,3.232-0.906c0,0,0.175,0.518,0.24,0.819
						c0.062,0.302,0.021,1.013,0.021,1.013l-1.173-0.129c0,0,0.695,0.927,0.781,1.315c0.087,0.388-0.628,0.151-1.148,0.129
						c-0.52-0.021,0.629,0.518,0.629,0.518s0.151,0.043,0.52,0.237c0.371,0.194,0.782,0.28,1.303,0.021c0,0,0.174,1.187-0.086,2.005
						c-0.262,0.82-0.369,1.898-0.238,2.178c0.129,0.28,0.436,0.043,0.629-0.388c0.195-0.431,0.281-0.474,0.281-0.474
						s0.174,1.294,0.412,1.854c0.238,0.561,0.391,2.459,0.607,3.041c0.219,0.581,0.307,1.36,0.132,1.726
						c-0.173,0.364-0.651,0.905-0.804,0.688c-0.152-0.215,0.238-1.768-0.456-3.019c0,0-0.237-0.15-0.349,0.69
						c-0.107,0.841-0.193,1.748-0.605,2.503c-0.414,0.754-1.021,1.768-1.021,1.768s-0.041-1.229-0.26-1.617
						c-0.216-0.389-0.326-0.15-0.586,0.302c-0.26,0.454-0.346,0.562-0.281,0.97c0.064,0.41-0.261,1.553-0.586,1.963
						c-0.326,0.41-0.74,0.494-1.086,0.583c-0.349,0.085-1.322,0.344-2.084,0.021c-0.759-0.324-0.867-0.518-1.258-1.295
						c-0.39-0.775-1.584-1.896-1.888-2.092c-0.304-0.191-0.563-0.191-0.261,0.668c0.305,0.864,0.587,1.554,0.954,1.986
						c0.369,0.43,0.858,1.131,1.093,1.643c0,0,2.727-0.09,3.42-0.307c0.695-0.214,2.172-0.885,2.541-0.928
						c0.367-0.042,1.475,0.087,1.647-0.086c0.175-0.172,0.935-1.358,1.649-2.264c0.717-0.906,1.324-1.726,1.215-2.998
						c-0.109-1.272-0.693-2.717-0.76-3.32c-0.062-0.605,0.064-2.675,0.064-2.675l0.978-0.679c0,0-0.458-0.335-0.694-0.249
						c-0.238,0.087-0.238,0.109-0.238,0.109s0.184-0.615-0.109-0.647c-0.293-0.033-0.293-0.033-0.293-0.033l0.221-0.282
						c0,0,0.809,0.207,0.918,0.163c0.11-0.042,0.176-0.345,0.023-0.754c-0.154-0.41-0.234-0.779-0.234-0.779l-0.365-0.084
						c0,0-0.355-0.884-0.529-1.12c-0.175-0.238-0.175-0.238-0.175-0.238s0.478,0,0.262-0.324c-0.218-0.324-0.783-0.905-0.997-1.466
						c0,0-0.688-0.639-0.789-1.096c-0.102-0.457,0.113-0.888,0.311-0.781c0.195,0.108,0.738,0.776,1.105,0.907
						c0.371,0.128,1.092,0.217,1.28,0.344c0.191,0.127,0.191,0.127,0.191,0.127s0.028-0.257-0.255-0.472
						c-0.283-0.216-0.781-0.345-0.998-0.583c-0.219-0.238-0.693-0.411-0.5-0.993c0.193-0.582,0.346-1.078,0.369-1.51
						C131.281,71.357,130.979,70.02,130.297,69.455L130.297,69.455z M130.979,78.208c0,0,0.223,0.729,0.595,0.927l0.046,1.087
						c0,0-0.292,0.395-0.35,0.244c-0.057-0.151-0.036-1.263-0.118-1.472C131.071,78.787,130.953,78.579,130.979,78.208z"/>
					<path fill="#FEF9D0" d="M111.427,71.796c0,0,1.795,0.024,2.473-0.208c0.675-0.232,0.651-0.463,2.306-1.181
						s1.842-1.135,4.15-1.784c2.308-0.648,4.775-0.58,5.549-0.394c0.768,0.187,1.908,0.371,2.165,0.417
						c0.255,0.046-2.262-0.163-3.776,0.022c0,0,0.723,0,0.91,0.093c0.188,0.093-0.046,0.232-1.025,0.208c0,0,0.768,0.14,1.373,0.232
						c0.608,0.093,1.074,0.023,0.934,0.163c-0.14,0.139-1.212,0.046-2.121-0.139c-0.908-0.185-2.285-0.37-3.753,0.046
						s-3.612,1.598-3.985,1.668c0,0,1.863,0.439,2.588,1.019c0,0-1.213-0.416-1.912-0.557c-0.699-0.138-0.816-0.37-1.352-0.254
						c-0.536,0.116-1.213,0.603-1.842,0.742S112.825,72.076,111.427,71.796z"/>
					<path fill="#FEF9D0" d="M119.91,69.805c0,0,0.865-0.278,1.819-0.301c0.955-0.022,1.436-0.021,1.324,0.199
						C122.941,69.921,121.467,69.517,119.91,69.805z"/>
					<path fill="#FEF9D0" d="M130.291,75.324c0,0,0.629,0.452,1.174,0.603c0.549,0.15,0.678,0.083,1.098,0.336
						c0.42,0.255,0.814,0.391,0.814,0.391s0.666,0.35,1.923,0.338c0,0-0.711,0.533-1.421,0.382c-0.711-0.15-1.597-0.139-2.191-0.567
						C131.092,76.378,130.291,75.324,130.291,75.324z"/>
					<path fill="#FEF9D0" d="M131.195,76.859c0,0,0.562,0.723,0.938,0.874c0.373,0.15,0.946,0.212,1.139,0.177
						c0.191-0.035,0.282-0.259,0.061-0.339c-0.221-0.08-1.05,0.062-1.527-0.243C131.327,77.022,131.195,76.859,131.195,76.859z"/>
					<path fill="#FEF9D0" d="M114.689,79.956c-0.082-0.027,0.549-0.672,0.776-0.899c0.229-0.228,0.622-0.31,0.696-0.246
						c0.072,0.063-0.76,0.764-1.042,1.1c-0.285,0.337-0.386,0.586-0.522,0.555C114.462,80.434,114.689,79.956,114.689,79.956z"/>
					<path fill="#FEEBDD" d="M116.491,79.065c-0.083-0.01,0.501,0.672,0.688,1.332c0.185,0.66,0.465,1.552,0.488,1.772
						c0.022,0.22-0.584-0.58-0.827-0.741c-0.246-0.163-0.495-0.83-0.502-1.356C116.332,79.547,116.491,79.065,116.491,79.065z"/>
					<path fill="#000002" d="M117.573,78.205c-0.007,0.062,0,0.176,0.14,0.328c0.137,0.152,0.422,0.319,0.436,0.221
						c0.016-0.099-0.312-0.313-0.383-0.427C117.696,78.213,117.634,78.13,117.573,78.205z"/>
					<path fill="#000002" d="M117.306,78.175c-0.015,0.068,0.009,0.342,0.123,0.464c0.114,0.122,0.29,0.229,0.313,0.281
						c0.022,0.053-0.1,0.092-0.246-0.045c-0.145-0.137-0.229-0.358-0.252-0.503C117.221,78.229,117.244,78.083,117.306,78.175z"/>
					<path fill="#000002" d="M117.067,78.807c0.009,0.129,0.024,0.494,0.323,0.654s0.52,0.252,0.52,0.305s-0.214,0.045-0.512-0.107
						C117.1,79.507,116.938,79.073,117.067,78.807z"/>
					<path fill="#000002" d="M117.88,79.492c0.062-0.069,0.328,0.396,0.497,0.556c0.17,0.16,0.66,0.228,1.018,0.197
						c0.361-0.03,0.807-0.021,0.99-0.197c0.185-0.175,0.275-0.441,0.33-0.374c0.053,0.069-0.077,0.381-0.186,0.518
						c-0.107,0.137-0.566,0.182-0.873,0.281c-0.309,0.099-0.842,0.015-1.08-0.076c-0.236-0.091-0.412-0.35-0.504-0.525
						S117.842,79.591,117.88,79.492z"/>
					<path fill="#FEEBDD" d="M118.377,78.807c-0.021-0.167,0.171-0.358,0.391-0.464c0.223-0.107,0.5-0.113,0.736-0.289
						c0.238-0.175,1.234,0.017,1.35,0.129c0.112,0.113,0.029,0.693-0.017,0.785c-0.046,0.091-0.06,0.102-0.121,0.289
						c-0.065,0.188-0.024,0.472-0.489,0.593c-0.469,0.122-1.404,0.163-1.583,0.078c-0.18-0.084-0.31-0.542-0.288-0.778
						C118.377,78.914,118.43,78.936,118.377,78.807z"/>
					<path fill="#000002" d="M118.422,79.097c0,0,0.285-0.214,0.47-0.329c0.184-0.114,0.714-0.167,0.987-0.091
						c0.277,0.076,0.315,0.173,0.576,0.228c0.258,0.055,0.479,0.235,0.285,0.278c-0.191,0.042-0.324-0.034-0.508-0.11
						c-0.184-0.076-0.902-0.053-1.111-0.031C118.914,79.066,118.309,79.217,118.422,79.097z"/>
					<path fill="#FEEBDD" d="M125.08,78.358c0.047-0.139,0.117-0.174,0.432-0.348c0.313-0.173,0.732-0.325,1.047-0.359
						c0.316-0.035,0.83,0.104,0.945,0.22c0.116,0.117,0.116,0.476-0.049,0.463c-0.165-0.012,0.274,0.412,0.274,0.412
						s0.241,0.365-0.202,0.527s-0.663,0.255-0.957,0.359c-0.289,0.105-0.779,0-0.99,0.023c-0.21,0.023-0.464-0.138-0.464-0.301
						c0-0.162,0.255-0.289,0.149-0.439C125.163,78.764,125.006,78.786,125.08,78.358z"/>
					<path fill="#000002" d="M128.076,78.672c0.151,0.046,0.314,0.081,0.455,0.012c0.14-0.069,0.487-0.069,0.838-1.147
						c0,0,0.137,0.799-0.396,1.17c0,0,0.211,0.092,0.433-0.139c0.22-0.232,0.372-0.452,0.372-0.452s0.059,0.359-0.211,0.544
						c-0.269,0.186-0.269,0.312-0.348,0.347c-0.082,0.036-0.549-0.104-0.782-0.139C128.204,78.833,127.891,78.707,128.076,78.672z"
						/>
					<path fill="#000002" d="M124.824,79.541c0.035,0.115,0.207,0.556,0.373,0.637c0.164,0.081,0.873,0.15,1.422-0.012
						c0.545-0.163,0.791-0.15,1.048-0.371c0.259-0.22,0.271-0.532,0.271-0.648s-0.119,0.208-0.513,0.463
						c-0.399,0.255-1.214,0.487-1.692,0.406c-0.477-0.082-0.559-0.163-0.641-0.301C125.01,79.574,124.871,79.366,124.824,79.541z"/>
					<path fill="#000002" d="M124.824,78.996c0.104-0.115,0.359-0.196,0.453-0.417s0.246-0.394,0.747-0.452
						c0.501-0.059,0.712-0.012,0.853,0.023c0.138,0.035,0.687,0.324,0.79,0.394c0.105,0.069,0.07,0.208-0.478,0
						c-0.548-0.209-1.141,0.035-1.457,0.163C125.418,78.833,124.73,79.169,124.824,78.996z"/>
					<path fill="#000002" d="M122.627,76.45c0,0,0.123,0.548,0.029,0.855c-0.092,0.307-0.292,0.684-0.408,0.764
						c-0.117,0.082,0.164,0.07,0.373-0.104c0.209-0.174,0.385-0.908,0.332-1.125C122.901,76.621,122.627,76.45,122.627,76.45z"/>
					<path fill="#000002" d="M126.281,76.482c-0.222,0-0.654,0.151-0.898,0.44c-0.246,0.289-0.42,0.348-0.583,0.568
						c-0.163,0.219-0.384,0.439-0.652,0.463c-0.268,0.023-0.456,0.058-0.595-0.058c-0.139-0.115-0.293-0.396-0.391-0.262
						c-0.098,0.134,0.217,0.459,0.367,0.575c0.152,0.115,0.412,0.157,0.688,0.138c0.276-0.018,0.397-0.173,0.642-0.301
						c0.243-0.127,0.29-0.163,0.313-0.36c0,0,0.524-0.162,0.771-0.242c0.244-0.082,0.419-0.209,0.651-0.301
						c0.234-0.093,1.05-0.058,1.514-0.07c0.469-0.012,0.992,0.104,0.992,0.104s-0.152-0.197-0.431-0.312
						c-0.28-0.116-0.571-0.127-0.571-0.127s0.256-0.255,0.268-0.359s-0.131-0.095-0.236-0.014c-0.105,0.082-0.387,0.336-0.473,0.347
						c-0.087,0.012-0.074-0.035,0.047-0.138c0.121-0.104,0.366-0.25,0.402-0.341c0.036-0.093-0.036-0.168-0.203-0.058
						c-0.17,0.11-0.588,0.469-0.588,0.469s-0.206-0.052-0.305-0.03c-0.098,0.023-0.192,0.099-0.232,0.105
						c-0.041,0.006,0.441-0.324,0.594-0.451c0.15-0.128,0.191-0.192,0.162-0.232c-0.029-0.04-0.278,0-0.442,0.197
						c-0.163,0.196-0.296,0.295-0.378,0.242c-0.082-0.052-0.082-0.098-0.018-0.202c0.064-0.104,0.254-0.323,0.227-0.429
						c-0.027-0.107-0.191,0.023-0.338,0.202C126.441,76.225,126.43,76.433,126.281,76.482z"/>
					<path fill="#000002" d="M121.972,77.863c-0.075,0.139-0.328,0.513-0.729,0.556c-0.399,0.042-1.02-0.417-1.168-0.427
						c-0.148-0.009-0.253,0.126-0.253,0.126s-0.146-0.134-0.31-0.243c-0.164-0.11-0.367-0.127-0.454-0.11
						c-0.088,0.016-0.059,0.132-0.116,0.074c-0.059-0.058-0.117-0.208-0.35-0.22c-0.234-0.012-0.42-0.127-0.641-0.167
						c-0.221-0.041-0.706,0.138-0.846,0.26c-0.139,0.121-0.152-0.012,0.023-0.15c0.174-0.14,0.426-0.262,0.654-0.296
						c0.226-0.035,0.308,0.006,0.231-0.046c-0.075-0.052-0.155-0.069-0.344-0.121c-0.187-0.052-0.228-0.029-0.263-0.076
						c-0.035-0.045,0.041-0.167,0.299-0.099c0.255,0.07,0.472,0.22,0.384,0.03c-0.087-0.191-0.122-0.302-0.14-0.428
						c-0.018-0.128,0.023-0.215,0.07-0.204c0.046,0.011,0.139,0.075,0.187,0.15c0.047,0.076,0.296,0.203,0.448,0.37
						c0.152,0.167,0.275,0.337,0.402,0.372c0.13,0.034,0.187,0.012,0.187,0.012s-0.237-0.312-0.231-0.58
						c0,0,0.057,0.214,0.319,0.481c0.263,0.266,0.448,0.405,0.46,0.365c0.012-0.04,0.023-0.134-0.053-0.261
						c-0.076-0.127-0.029-0.3-0.006-0.33c0.023-0.029,0.229,0.463,0.455,0.608c0.228,0.145,0.635,0.354,0.814,0.417
						c0.182,0.063,0.406,0.054,0.573-0.002c0.167-0.056,0.363-0.252,0.413-0.283C122.035,77.61,122.025,77.702,121.972,77.863z"/>
					<path fill="#000002" d="M123.545,79.239c-0.059,0.066,0.047,0.634,0.069,0.778c0.023,0.145,0.06,0.296,0.087,0.313
						c0.029,0.017,0.041-0.279,0-0.684S123.614,79.248,123.545,79.239z"/>
					<path fill="#000002" d="M122.076,78.768c0.034-0.03,0.146,0.167,0.192,0.683c0.048,0.515,0.062,1.451-0.036,1.541
						c-0.095,0.089-0.412,0.046-0.57,0.127c-0.158,0.082-0.193,0.487-0.016,0.567c0.174,0.082,0.057-0.04,0.371-0.012
						s0.386,0.092,0.502,0.22c0.117,0.126,0.203,0.243,0.471,0.272c0.27,0.029,0.409-0.162,0.531-0.33
						c0.123-0.168,0.191-0.209,0.35-0.227c0.158-0.017,0.373,0.03,0.42-0.22c0.046-0.249,0.021-0.435-0.121-0.521
						c-0.146-0.087-0.32-0.046-0.24-0.157s0.495,0.012,0.559,0.168c0.036,0.086,0.062,0.286,0.05,0.478
						c0.128,0.072,0.335,0.184,0.565,0.298c0.387,0.19,0.732,0.401,1.094,1.211c0.361,0.811,0.43,1.483,0.547,2.051
						c0.117,0.567-0.047,1.205-0.047,1.205s-0.035-0.673-0.127-1.078c-0.094-0.405-0.363-1.743-0.664-2.235
						c-0.301-0.492-0.828-0.915-1.121-1.112c-0.103-0.072-0.201-0.121-0.275-0.153c-0.023,0.086-0.059,0.16-0.113,0.205
						c-0.199,0.168-0.554,0.087-0.59,0.133c-0.033,0.046-0.284,0.475-0.662,0.51c-0.38,0.035-0.74-0.139-0.888-0.277
						c-0.146-0.14-0.214-0.191-0.39-0.215c-0.173-0.023-0.442-0.099-0.564-0.307c-0.123-0.209,0.04-0.585,0.314-0.707
						c0.273-0.122,0.473-0.087,0.473-0.087s0.052-0.654,0.033-1.141C122.105,79.172,122.025,78.947,122.076,78.768z"/>
					<path fill="#FEEBDD" d="M122.479,84.628c0-0.232-0.022-0.59,0.071-1.019c0.093-0.429,0.22-0.66,0.36-0.671
						c0.141-0.012,0.489,0.035,0.814-0.186c0.326-0.22,0.283-0.319,0.584-0.417c0.301-0.098,0.488-0.104,0.688,0
						c0.199,0.104,0.467,0.509,0.489,0.787c0.023,0.278,0.07,0.278-0.022,0.209c-0.093-0.07-0.678-0.521-1.002-0.498
						c-0.326,0.023-0.886,0.196-1.132,0.543C123.086,83.725,122.652,84.559,122.479,84.628z"/>
					<path fill="#000002" d="M119.541,85.566c0.209-0.394,0.42-0.798,0.712-1.262c0.291-0.464,0.747-1.39,0.839-1.669
						c0.093-0.277-0.06-0.255-0.314,0.209c-0.354,0.64-0.734,1.238-1.096,1.868c-0.178,0.306-0.32,0.639-0.418,0.906
						C119.115,86.032,119.375,85.882,119.541,85.566z"/>
					<path fill="#000002" d="M121.246,86.253c0.101-0.113,0.076-1.141,0.191-1.542c0.117-0.398,0.414-1.302,0.479-1.649
						c0.062-0.347,0.112-0.469,0.06-0.504c-0.054-0.036-0.243,0.698-0.384,1.047c-0.143,0.35-0.363,1.131-0.393,1.311
						C121.17,85.094,121.088,86.339,121.246,86.253z"/>
					<path fill="#F19D3E" d="M123.903,89.582c0,0,0.163,0.463,0.397,0.637c0.232,0.176,0.71,0.371,0.896,0.139
						c0.186-0.229,0.268-0.914,0.209-1.527c-0.059-0.614-0.15-0.754-0.15-0.754S125.116,89.896,123.903,89.582z"/>
					<path fill="#F19D3E" d="M122.668,89.315c0,0,0.127,0.869,0.35,1.46c0.221,0.59,0.675,1.332,1.141,1.609
						c0.467,0.279,1.271,0.173,1.702-0.428c0.431-0.602,0.489-0.557,0.466-1.263s-0.15-0.706-0.336-0.845
						c-0.188-0.14-0.07,0.254-0.061,0.555c0.014,0.302-0.092,0.729-0.758,0.753c-0.662,0.023-1.352-0.325-1.737-0.82
						C123.051,89.836,122.668,89.315,122.668,89.315z"/>
					<path fill="#000002" d="M125.523,86.977c0,0-0.07,0.509,0.163,0.996c0.234,0.487,0.595,1.343,0.569,1.993
						c-0.021,0.647-0.149,1.182-0.686,1.342c-0.539,0.164-1.072,0.094-1.48-0.22c-0.408-0.312-0.711-0.683-0.98-0.995
						c-0.266-0.312-0.454-0.534-0.535-1.031c0,0,0.093,0,0.304,0.313c0.209,0.312,0.861,1.192,1.178,1.332
						c0.313,0.138,0.873,0.29,1.2,0.231c0.324-0.059,0.839-0.453,0.688-1.426c-0.152-0.973-0.456-1.182-0.514-1.68
						C125.371,87.336,125.523,86.977,125.523,86.977z"/>
					<path fill="#FEEBDD" d="M129.265,87.915c0.033,0.103-0.128,0.994-0.267,1.331c-0.141,0.336-0.456,0.44-0.502,0.197
						c-0.047-0.244,0.057-0.406,0.186-0.625C128.811,88.597,129.019,88.482,129.265,87.915z"/>
					<path fill="#000002" d="M125.594,84.173c-0.094-0.265-0.475-0.861-1.164-0.996c-0.692-0.134-1.285,0.545-1.751,1.75
						c-0.464,1.205-0.114,2.721,0.038,3.115c0.148,0.394,0.384,0.925,0.766,1.39c0.385,0.463,1.412,0.602,1.619,0.463
						c0.211-0.138,0.216-0.238,0.176-0.961c-0.039-0.722,0.084-1.042-0.059-1.182c-0.139-0.139-0.395-0.012-0.395-0.012
						s-0.061-0.324,0.128-1.099c0.185-0.776,0.278-1.471,0.409-1.704C125.488,84.706,125.676,84.603,125.594,84.173z"/>
					<path fill="#6D6E6E" d="M124.451,85.111c-0.176,0.093-0.746,0.845-0.805,1.413c-0.057,0.568-0.021,0.694-0.021,0.694
						s0.266-1.158,0.478-1.482C124.311,85.412,124.451,85.111,124.451,85.111z"/>
					<path fill="#6D6E6E" d="M124.322,85.76c-0.082,0.081-0.372,0.626-0.478,1.019c-0.105,0.394-0.21,1.007-0.152,1.355
						c0,0,0.129-0.949,0.304-1.459C124.172,86.165,124.322,85.76,124.322,85.76z"/>
					<path fill="#FFFFFF" d="M123.492,88.826c0,0,0.273,0.395,0.484,0.55c0.211,0.157,0.518,0.187,0.676,0.19
						c0.158,0.008,0.209-0.044,0.209-0.12c0-0.075,0.018-0.782,0.007-0.829c-0.013-0.047-0.215,0.105-0.483,0.169
						C124.115,88.85,123.859,88.746,123.492,88.826z"/>
					<path fill="#FFFFFF" d="M125.158,84.333c0.037-0.063,0.007-0.226-0.168-0.451c-0.176-0.226-0.513-0.435-0.688-0.469
						c-0.174-0.036-0.594,0.186-0.754,0.463c-0.156,0.278-0.238,0.417-0.249,0.469c-0.012,0.052,0.274,0.07,0.677,0.07
						c0.401,0,0.616-0.018,0.82-0.041C125.002,84.35,125.049,84.367,125.158,84.333z"/>
					<path fill="#FEEBDD" d="M128.852,80.679c-0.08,0.023-0.393,0.707-0.627,0.984c-0.234,0.278-0.607,0.718-0.57,1.007
						c0.034,0.29,0.418,0.244,0.711-0.37C128.654,81.686,128.852,81.003,128.852,80.679z"/>
					<path fill="#000002" d="M129.32,83.783c-0.049-0.232-0.105-0.892,0.22-1.517c0.327-0.625,0.738-1.266,0.806-1.622
						c0.067-0.356,0.047-0.938,0.152-0.88c0.103,0.058,0.175,0.961-0.06,1.425c-0.233,0.463-0.593,1.101-0.768,1.679
						C129.496,83.447,129.437,83.851,129.32,83.783z"/>
					<path fill="#000002" d="M129.893,91.508c-0.119-0.035,0.046-0.406,0.197-0.836c0.15-0.426,0.383-1.15,0.454-1.911
						c0.067-0.759-0.286-1.739-0.325-2.051c-0.035-0.311,0.523,0.825,0.547,1.356c0.023,0.533,0.046,1.367-0.222,2.109
						C130.275,90.918,130.031,91.371,129.893,91.508z"/>
					<path fill="#000002" d="M126.686,69.084c0,0,1.411,0.37,1.959,0.799c0.547,0.429,1.096,1.251,1.083,1.459
						c-0.013,0.209-0.139-0.127-0.29-0.22c-0.152-0.092-0.374-0.625-0.735-0.926C128.34,69.895,127.697,69.409,126.686,69.084z"/>
					<path fill="#000002" d="M128.178,70.915c0,0,0.524,0.138,1.049,0.59s1.084,0.776,0.965,0.834
						c-0.113,0.059-0.511-0.208-0.895-0.51C128.912,71.528,128.73,71.158,128.178,70.915z"/>
					<path fill="#000002" d="M134.244,85.18c0,0,0.295-0.279,1.184-0.279c0.886,0,1.666,0.434,1.898,0.774
						c0.234,0.339,0.248,0.851-0.298,1.052c-0.542,0.202-0.79-0.046-0.884-0.279c-0.098-0.231-0.424-0.881-0.824-1.052
						C134.912,85.226,134.492,85.18,134.244,85.18z"/>
					<path fill="#FFFFFF" d="M135.52,85.133c0,0,1.045,0.17,1.309,0.512c0.266,0.339,0.156,0.865-0.174,0.803
						C136.328,86.386,136.377,85.658,135.52,85.133z"/>
					<path fill="#DBDCDC" d="M129.938,97.361l-0.538-3.808c0,0-1.41-0.163-2.996,0.577c0,0,0.391,0.54,0.795,0.727
						C127.605,95.043,129.035,97.27,129.938,97.361z"/>
					<path fill="#FFFFFF" d="M126.519,94.275c0,0,1.093-0.171,1.498,0.109c0.405,0.279,0.812,0.913,0.981,1.377
						c0.17,0.463,0.59,1.189,0.59,1.189s0.547,1.996,0.576,2.57c0.031,0.572-0.605-0.574-1.276-1.301
						C128.219,97.494,126.335,94.662,126.519,94.275z"/>
					<path fill="#A32622" d="M122.582,96.457c0,0,0.809-1.221,0.971-1.484c0.165-0.26,0.931-0.27,1.452-0.391
						c0.522-0.119,1.284-0.307,1.284-0.307l0.717,1.219c0,0,0.06,0.468-0.654,0.174c-0.717-0.295-1.37-0.137-1.043,0.078
						c0.326,0.216,0.98,0.696,0.871,0.973c-0.109,0.279-0.404,1.207-0.67,1.424c-0.265,0.219-0.248,0.232-0.855-0.447
						C124.047,97.015,123.812,96.596,122.582,96.457z"/>
					<path fill="#CB3727" d="M126.985,95.633c0,0-0.713-0.385-0.868-0.49c-0.154-0.109-0.966,0.046-1.367,0.078
						c-0.406,0.029-0.422,0-0.498,0.293c-0.08,0.293-0.08,0.665,0.138,0.648c0.218-0.014,0.794-0.03,1.106,0.109
						c0.311,0.139,0.435,0.479,0.248,0.713c-0.188,0.231-0.265,0.246-0.389,0.478c-0.125,0.233-0.204,0.754-0.204,0.754
						s0.733-0.521,1.138-0.521c0.403,0,0.84,0.092,0.918-0.201c0.076-0.295,0.058-1.564,0.058-1.564L126.985,95.633z"/>
					<path fill="#DBDCDC" d="M122.684,96.308l0.873-1.337l-0.688-0.206c0,0-0.969,0.315-1.862-0.2
						c-0.891-0.518-1.762-0.699-2.398-0.822c-0.639-0.124-2.061-1.281-2.301-1.535c-0.239-0.258-1.188-1.352-1.467-1.697
						c-0.281-0.342-0.255-1.079-0.255-1.079s-0.616,0.272-0.601,1.354c0.016,1.084,0.699,2.09,0.934,2.352
						c0.234,0.264,0.498-0.277,1.168,0.436c0.67,0.711,1.4,1.824,2.662,2.227C120.008,96.201,122.684,96.308,122.684,96.308z"/>
					<path fill="#FFFFFF" d="M123.119,95.64c0,0-1.914,0.331-3.221,0.004c-1.309-0.323-2.039-0.757-2.863-1.606
						c-0.826-0.853-1.434-1.672-1.822-1.951l0.107,1.103c0,0,1.886,2.38,2.508,3.339c0.623,0.958,1.854,2.119,2.118,2.613
						c0.263,0.495,0.28,0.432,0.45,0.248C120.568,99.203,123.119,95.64,123.119,95.64z"/>
					<path fill="#DBDCDC" d="M120.127,99.447c0,0,0.201,0.045,0.443-0.283c0.245-0.328,2.012-2.709,2.012-2.709
						s1.178,0.227,1.717,0.838c0.543,0.611,0.643,1.244,0.798,1.307c0.157,0.063,0.273-0.704,1.192-0.904
						c0.916-0.201,0.932,0.064,0.953-0.461c0.021-0.521,0.021-1.307,0.021-1.307s1.314,1.896,1.723,2.404
						c0.41,0.508,1.248,1.381,1.342,1.659c0.092,0.28,0.466,2.042,0.717,3.466c0.246,1.423,0.373,4.982,0.092,6.281
						c-0.279,1.301-0.499,4.764-1.059,5.693c-0.561,0.928-1.309,2.166-1.713,2.352c-0.402,0.187-1.026-1.113-1.432-2.104
						c-0.404-0.99-1.401-3.868-1.713-5.879c-0.311-2.012-0.715-2.568-0.747-4.982s-0.591-5.414-0.81-5.786
						c-0.218-0.37-0.496-0.681-0.84-0.37c-0.342,0.307-2.117,2.258-2.117,2.258L120.127,99.447z"/>
					<path fill="#FFFFFF" d="M120.508,100.41c0,0,1.072-1.098,1.602-1.717c0.528-0.619,0.716-0.93,0.934-0.867
						c0.219,0.062,0.623,0.465,0.84,0.649c0.219,0.188,0.406,1.548,0.624,2.754c0.217,1.208,0.341,2.074,0.341,3.157
						c0,1.082,0.218,3.001,0.343,3.496c0.126,0.495,0.562,3.217,0.747,3.775c0.187,0.558,1.089,2.258,1.34,2.814
						c0.247,0.559,0.475,2.861,0.475,2.861s-2.656-5.676-3.65-8.244C123.104,106.521,122.016,102.406,120.508,100.41z"/>
					<path fill="#FFFFFF" d="M126.873,98.229c0,0,1.961,1.084,2.271,1.331c0.313,0.247,0.375,0.649,0.53,1.3
						c0.155,0.648,0.281,3.279,0.124,5.043c-0.153,1.764-0.279,3.404-0.279,3.404s-1.061-1.919-1.215-4.023
						C128.15,103.18,127.869,99.899,126.873,98.229z"/>
					<path fill="#A32622" d="M127.487,99.35c-0.104,0.034-0.584-0.599-0.614-1.121c-0.031-0.521-0.031-0.521-0.031-0.521
						s-0.949,0.004-1.225,0.316c-0.279,0.316-0.466,0.491-0.264,0.848c0.202,0.354,0.453,1.067,0.484,1.547
						c0.031,0.479,0.014,4.766-0.047,5.926s-0.031,3.279,0.529,4.363c0.562,1.082,1.852,2.506,3.238,2.955
						c1.385,0.447,4.156,0.57,5.883,0.338c1.73-0.23,2.727-1.113,3.1-1.422s1.15-1.238,1.432-2.09c0.281-0.85,0.281-0.85,0.281-0.85
						s-0.857,0.17-1.387,0.371c-0.529,0.202-2.615,1.377-2.615,1.377s-0.373,0.727-0.871,0.665s-1.432-0.233-1.432-0.233
						s-1.869,0.62-3.878-0.186c-2.008-0.803-2.911-2.676-2.989-3.311c-0.078-0.633,0.049-2.242,0.064-3.589
						c0.014-1.347-0.53-3.806-0.498-4.037C126.678,100.463,127.753,99.968,127.487,99.35z"/>
					<path fill="#CB3727" d="M126.445,98.482c0,0,0.031,0.93,0.186,1.271c0.157,0.34,0.53,0.495,0.623-0.293l0.186,0.097
						c0,0,0.609,2.639,0.738,4.184c0.127,1.541,0.836,4.242,1.24,4.754c0.404,0.51,0.622,0.881,1.088,1.252
						c0.469,0.372,1.076,0.806,1.684,1.191c0.605,0.387,2.204,0.96,2.204,0.96s-0.413,0.354-1.394,0.479
						c-0.981,0.123-2.229,0.201-3.66-0.727c-1.434-0.929-2.457-1.826-2.568-3.513c-0.109-1.687,0.327-3.048,0.047-4.827
						s-0.202-1.902-0.373-2.584c-0.173-0.68-0.266-1.688-0.312-1.779S126.335,98.779,126.445,98.482z"/>
					<path fill="#A32622" d="M127.516,108.021c0,0.121,0.442,1.228,1.41,1.723c0.967,0.496,1.701,0.794,2.521,0.905l-0.609-0.74
						l-0.646-0.242c0,0-0.619-0.078-1.289-0.463C128.236,108.815,127.516,108.021,127.516,108.021z"/>
					<path fill="#CB3727" d="M136.15,111.782c-0.105-0.089,0.298-0.743,0.654-1.084c0.359-0.34,1.291-0.805,1.695-1.146
						c0.408-0.339,1.06-1.005,1.247-1.207c0.188-0.201,0.405-0.215,0.419-0.062c0.016,0.155-0.077,1.501-0.077,1.501
						s-0.888,0.339-1.915,0.866C137.148,111.179,136.15,111.782,136.15,111.782z"/>
					<path fill="#F19D3E" d="M141.965,114.305c0,0-0.576-0.611-1.146-1.06c-0.175-0.136-0.346-0.255-0.502-0.338
						c-0.668-0.358-1.439-0.661-1.439-0.661l-0.514,0.477l1.405,3.375l0.532,1.243c0,0,0.394-0.818,0.394-1.363
						c0-0.546,0.104-0.817,0.378-1.093C141.348,114.613,142,114.562,141.965,114.305z"/>
					<path fill="#FDC99F" d="M142.24,114.853c0,0-0.412-0.393-0.945-0.665c-0.531-0.273-0.704-0.223-0.704-0.223
						s-0.188,1.092-0.274,1.536c-0.084,0.442-0.016,1.841-0.016,1.841s0.824-0.426,1.028-1.178
						C141.535,115.414,142.24,114.853,142.24,114.853z"/>
					<path fill="#FEEBDD" d="M142.311,115.073c0,0-0.467-0.358-0.758-0.068s-0.359,0.903-0.585,1.296
						c-0.222,0.393-0.673,0.922-0.673,0.922s0.52,0.118,0.76,0C141.295,117.104,142.17,115.978,142.311,115.073z"/>
					<path fill="#DBDCDC" d="M143.406,113.06c0,0-1.031-0.938-1.562-1.244c-0.529-0.308-1.527-0.7-1.836-0.563
						c-0.308,0.137-0.604,0.469-0.738,0.785s-0.135,0.316-0.135,0.316l1.585,0.815l0.917-0.092l1.787,0.579L143.406,113.06z"/>
					<path fill="#FFFFFF" d="M141.279,112.441c-0.084,0.138-0.434,0.631-0.434,0.631s0.951,0.768,1.097,0.99
						c0.146,0.222,0.575,1.057,0.919,0.545c0.342-0.512,0.481-1.125,0.481-1.125s-0.766-0.502-1.202-0.674
						C141.703,112.639,141.279,112.441,141.279,112.441z"/>
					<path fill="#FDC99F" d="M101.156,84.996c0,0-0.221,1.566,0.124,1.934c0.344,0.367,0.812,0.661,1.206,1.515
						c0.395,0.859,0.764,0.173,0.962,0.833c0.196,0.661,0.886,1.492,1.107,1.812c0.222,0.316-0.394,0.807-0.862,1.125
						c-0.467,0.318-0.467,2.201-0.197,2.862c0.272,0.661-1.699,0.222-1.871,0.71c-0.172,0.49-0.319,2.154-0.319,2.154
						s1.551,1.003,2.313,1.272c0,0,0.271,0.048,0.492-0.417c0.222-0.465,1.034-2.496,1.034-2.496s1.207-0.831,1.526-1.859
						c0.32-1.028,0.444-2.03,0.345-2.862c-0.099-0.833-0.173-0.98-0.173-0.98l2.562-0.612l-0.123-1.101c0,0,0.614-0.146,0.541-0.832
						c-0.074-0.686-0.418-1.787-0.788-2.006c-0.369-0.22-0.443-0.465-0.541-0.955c-0.099-0.489-0.271-1.101-0.443-1.199
						c-0.173-0.097-1.847,0.025-2.585,0.416c-0.739,0.391-1.379,0.759-1.379,0.759s-0.122-2.545,0-3.157
						c0.123-0.612,0.616-1.468,0.566-2.447s-0.148-2.324-0.369-2.472c-0.222-0.146-1.108-0.245-1.33-0.171
						c-0.222,0.074-0.393,1.542-0.393,2.594C102.56,80.469,101.477,84.31,101.156,84.996z"/>
					<path fill="#DE8E2A" d="M108.647,85.641l-0.246-0.947c0,0-1.114,0.228-2.124,0.987c-1.01,0.759-2.043,1.736-1.699,1.713
						c0.345-0.025,0.321-0.246,1.527-0.686C107.312,86.267,108.647,85.641,108.647,85.641z"/>
					<path fill="#1D2A53" d="M113.696,89.932c0,0-0.591,0.316-0.591,1.126s0.478,2.073,0.697,2.685
						c0.217,0.613,0.436,1.6,0.355,2.231c-0.079,0.632,0.021,0.688,0.537,0.888s1.861,0.967,2.077,1.051
						c0.218,0.081,0.318,0.283,0.243,0.682c-0.074,0.4-0.771,1.27-0.613,1.546c0.16,0.275,1.412,1.993,1.412,1.993
						s0.695,1.461,1.074,2.172c0.375,0.709,2.647,4.477,2.803,4.727c0.156,0.246,0.434,0.781,0.871,1.57s3.377,5.508,3.574,5.469
						c0.199-0.04-0.159-1.383-0.614-2.51c-0.458-1.123-2.007-4.756-2.425-6c-0.416-1.244-1.809-3.908-2.284-4.658
						s0.279-0.889,0.198-1.166c-0.08-0.275-0.835-1.262-1.25-1.717c-0.42-0.454-1.729-2.783-2.187-3.138
						c-0.456-0.354-1.411-0.909-2.146-2.015s-1.351-2.547-1.469-3.156c-0.119-0.613,0.039-1.877,0.039-1.877L113.696,89.932z"/>
					<path fill="#DE8E2A" d="M109.741,87.571c0,0-0.902,0.141-1.666,0.237c-0.763,0.098-1.749,0.465-2.462,1.249
						c0,0,1.453-0.366,2.117-0.392c0.664-0.025,1.551,0.22,1.551,0.22S110.143,88.812,109.741,87.571z"/>
					<path fill="#DE8E2A" d="M109.405,89.986c0,0,0.171,0.172-0.467,0.809c-0.641,0.635-1.38,0.979-1.921,0.783l-0.32-1.223
						c0,0,0.369-0.221,1.059-0.393C108.444,89.79,109.381,89.783,109.405,89.986z"/>
					<path fill="#DE8E2A" d="M101.65,84.433c0,0-0.517,1.86-0.197,2.202c0.319,0.342,0.542,0.489,0.862,0.465
						c0.32-0.025,0.221,1.027,0.517,1.173c0.295,0.148,0.837,0.171,0.862,0.54c0.024,0.365,0.197,1.149,0.738,1.542
						c0.542,0.39,0.887,0.587,0.789,0.929c-0.1,0.341-0.173,0.466,0.024,0.588c0.197,0.121,0.615,0.537,1.009,0.562
						c0,0-0.271,0.367-0.936,0.121c-0.665-0.244-0.763-0.414-0.763-0.414s-0.296-0.049,0.074,0.44s0.738,0.759,1.132,0.856
						s0.394,0.098,0.394,0.098s-0.344,0.344-0.911,0.098c-0.566-0.245-0.76-0.744-1.059-1.148c0,0-0.395-0.026-0.567,0.684
						c-0.171,0.711-0.024,1.713,0.246,2.373c0,0,1.207,0,1.625,0.318c0,0-0.57,1.002-0.71,1.348
						c-0.141,0.344-1.506-0.223-2.047-0.711c-0.541-0.49-0.664-0.537-0.664-0.537s-0.049,0.732-0.099,1.025
						c-0.049,0.293-0.222,1.232-0.222,1.232s-1.23-0.89-1.674-1.354c-0.442-0.467-0.417-0.295-0.122-0.831
						c0.295-0.538,1.083-1.714,1.008-3.354c-0.073-1.639-0.271-5.749-0.196-6.386C100.837,85.656,101.65,84.433,101.65,84.433z"/>
					<path fill="#FEEBDD" d="M104.357,86.415c0.024-0.391,0.443-0.759,1.305-1.249c0.862-0.488,1.55-0.856,1.797-0.733
						c0.246,0.122,0.282,0.37-0.335,0.728C106.506,85.519,104.382,86.782,104.357,86.415z"/>
					<path fill="#FFFFFF" d="M104.379,98.18c0,0,0.902,0.311,1.074,0.506c0.173,0.197-0.098,0.711-0.098,0.711
						s-0.888,0.143-1.54-0.236l0.515-0.865L104.379,98.18z"/>
					<path fill="#DBDCDC" d="M103.921,99.078c0,0,0.822,0.072,1.42-0.481c0,0,0.273,0.351,0.054,0.712
						C105.176,99.671,103.921,99.078,103.921,99.078z"/>
					<path fill="#DBDCDC" d="M106.259,99.609c0,0,0.259,0.856-0.147,1.053c-0.406,0.195-3.028,0.758-3.939,0.415
						c-0.911-0.341-1.243-0.771-1.649-1.442c-0.326-0.541-1.198-1.615-1.531-2.021c-0.082-0.1-0.131-0.158-0.131-0.158
						s0.221-0.171,0.615-0.024c0.393,0.146,1.687,1.469,2.375,1.885c0.69,0.416,1.441,0.623,2.056,0.489
						c0.616-0.136,1.638-0.293,1.638-0.293L106.259,99.609z"/>
					<path fill="#FFFFFF" d="M105.398,99.598c-0.011-0.062-0.789,0.379-1.453,0.514c-0.665,0.133-0.726,0.035-1.305-0.184
						c-0.579-0.221-1.256-0.637-1.749-1.113c-0.492-0.477-1.182-1.164-1.884-1.309l-0.849-0.869l0.764-1.285
						c0,0,0.345-0.025,0.48,0.416c0.135,0.44,0.282,0.904,0.528,1.127c0.247,0.219,0.919,0.679,1.513,1.133
						C102.037,98.482,102.763,99.205,105.398,99.598z"/>
					<path fill="#46498D" d="M113.696,89.932c0,0-0.677,0.689-0.355,1.766c0.319,1.076,0.894,2.294,1.028,2.882
						c0.135,0.587,0.172,1.163,0.135,1.442c-0.035,0.283-0.172,0.441-0.024,0.514c0.147,0.074,1.356,0.514,2.082,0.954
						c0.726,0.441,0.935,0.796,0.935,0.796s-0.863,1.664-0.825,1.872s0.161,0.134,0.788,0.892c0.629,0.76,1.391,1.713,1.725,2.117
						c0.331,0.404,0.577,0.686,0.775,0.979c0.197,0.293,0.344,0.489,0.197,0.379c-0.148-0.109-1.232-0.953-1.455-1.051
						c-0.219-0.099,0.529,0.746,1.048,1.553c0.519,0.809,0.628,1.211,0.984,1.787c0.359,0.575,0.581,0.893,0.888,1.529
						c0.308,0.637,0.646,1.897,0.646,1.897s-2.271-3.402-2.74-3.929c-0.468-0.525-1.6-2.385-1.932-2.838
						c-0.333-0.453-2.131-2.961-2.377-3.205c-0.245-0.244-0.011-0.586,0.442-0.918c0.455-0.331,1.347-1.127,1.17-1.113
						c-0.174,0.015-2.99-0.367-3.348-0.477c-0.357-0.111,0-1.064,0.025-2.055c0.023-0.992-0.037-1.482-0.311-2.131
						c-0.27-0.647-0.479-1.626-0.502-1.787C112.671,91.629,112.755,89.783,113.696,89.932z"/>
					<path fill="#1D2A53" d="M112.803,92.289c0,0-0.737,0.49-1.515,0.783c-0.776,0.292-1.983,0.398-1.983,0.398l0.267,1.332
						c0,0-0.83-0.932-1.071,0.08c-0.241,1.013-0.267,1.463-0.267,1.463l-0.456-0.398l-2.068,2.637c0,0-0.13,0.199-0.222,0.463
						s-0.096,0.546-0.096,0.546l0.868,0.017l-0.147,1.053c0,0,0.782,0.426,0.889,0.825c0.107,0.398,0.43,1.892,0.805,1.491
						c0.375-0.398,0.857-1.811,1.232-1.811c0.375,0,1.179-0.24,1.151-0.027c-0.025,0.213-0.08,2.369,0.51,2.078
						c0.589-0.293,1.34-1.146,1.635-2.611c0.295-1.464-0.107-4.234-0.107-4.234l1.258-0.301
						C113.482,96.073,113.618,94.058,112.803,92.289z"/>
					<path fill="#46498D" d="M108.602,92.48c0,0,0.844,0.145,1.326,0.119c0.482-0.027,1.354-0.119,1.676-0.268
						c0.321-0.145,1.116-0.408,1.116-0.408l0.126,0.543c0,0-0.332,0.117-0.613,0.451s-0.912,0.479-1.475,0.615
						c-0.561,0.132-1.125,0.185-1.125,0.185s0.416,1.358,0.443,2.036c0.026,0.68-0.014,0.92-0.014,0.92s-0.255-1.012-0.536-1.465
						s-0.549-0.706-0.737-0.426c-0.187,0.279,0.068,1.891-0.121,3.076c-0.188,1.186-0.603,1.624-0.603,1.624
						s-0.081-0.612-0.12-1.238c-0.041-0.625-0.067-1.716-0.108-1.837c-0.04-0.121-0.241,0.746-1.005,1.517
						c-0.763,0.774-1.207,1.026-1.207,1.026s-0.107-0.326-0.447-0.574c0,0-0.182-0.079,0.193-0.371
						c0.375-0.293,1.487-1.625,2.037-2.289c0.55-0.666,1.032-1.359,1.059-1.639c0.027-0.278,0.067-0.691-0.027-1.051
						C108.347,92.666,108.213,92.637,108.602,92.48z"/>
					<path fill="#1D2851" d="M130.32,94.824c1.293-0.059,1.393,0.061,1.668,0.197c0.279,0.139,1.771-0.059,1.987-0.078
						c0.22-0.019,0.478-0.06,0.319,0.354c-0.161,0.415-0.478,1.581,0.059,2.132c0.536,0.554,2.444,1.561,3.08,2.429
						c0.635,0.87,0.992,2.134,2.164,2.546c1.172,0.414,2.186,0.812,2.541,0.967c0.359,0.158,0.359,0.396,0.359,0.396
						s-1.471,0.454-2.166,1.164c-0.693,0.711-0.734,1.007-0.873,0.81c-0.138-0.198-1.529-2.706-1.986-2.783
						c-0.457-0.079-1.312,0.571-1.668-0.534c-0.358-1.104-0.537-2.547-1.609-3.258c-1.074-0.711-1.173-1.123-1.331-1.994
						C132.704,96.305,131.154,96.227,130.32,94.824z"/>
					<path fill="#46498D" d="M131.172,94.814c0,0-0.016,0.483,0.918,0.465c0.933-0.021,1.846-0.081,1.846-0.081
						s-0.355,1.245,0.021,1.896c0.375,0.652,0.535,0.869,1.568,1.479c1.034,0.614,1.509,1.206,2.184,2.233
						c0.678,1.026,0.916,1.518,2.287,2.032c1.369,0.513,1.158,0.302,1.766,0.493c0.611,0.191,0.736,0.436,0.736,0.436l0.536-0.238
						c0,0-0.478-0.69-1.708-0.987c-1.23-0.296-2.344-0.908-2.722-1.815c-0.376-0.908-0.954-1.658-1.827-2.191
						c-0.873-0.531-1.829-0.751-2.143-1.539c-0.321-0.789,0.395-2.013,0.295-2.23S131.172,94.814,131.172,94.814z"/>
					<path fill="#1D2851" d="M140.348,107.463c0,0,0.279-1.529,0.457-1.982c0.179-0.456,1.172-1.027,1.817-1.076
						c0.646-0.051,1.431,0.156,1.878,0.611c0.444,0.455,1.004,0.957,1.004,0.957s0.475,1.5,0.367,1.887
						c-0.109,0.385,0.019,0.196-0.874-0.741c-0.894-0.938-1.362-1.618-1.938-1.45c-0.575,0.167-1.211,0.424-1.551,1.254
						c-0.336,0.828-0.803,1.488-0.803,1.488S140.316,108.571,140.348,107.463z"/>
					<path fill="#46498D" d="M140.363,107.374c0,0-0.047-1.163-0.047-1.618c0-0.454,0.271-1.1,0.652-1.31
						c0.384-0.21,1.275-0.674,1.93-0.626c0.658,0.05,1.264,0.209,1.711,0.8c0.447,0.593,0.844,1.579,0.844,1.579
						s-0.597-0.848-1.174-1.223s-1.269-0.533-2.083-0.277c-0.817,0.258-1.184,0.791-1.353,1.322
						C140.676,106.556,140.547,107.297,140.363,107.374z"/>
					<path fill="#1D2851" d="M108.745,107.69l-0.835,1.011c0,0,0.319,2.898-0.396,4.438c-0.716,1.541-1.51,4.383-1.629,6.238
						c-0.119,1.855,0.199,2.883,0.199,2.883s7.435,0.017,9.537,1.016c2.103,0.997,6.472,0.523,6.472,0.523s1.191-0.553-1.747-1.658
						c-2.939-1.106-7.069-1.186-7.231-2.213c-0.158-1.025-1.271-1.225-0.475-2.881c0.793-1.658,1.39-3.592,1.39-3.592
						s-1.153-1.106-2.622-0.516c-1.47,0.595-1.51,0.555-1.629-0.553C109.658,111.283,108.745,107.69,108.745,107.69z"/>
					<path fill="#46498D" d="M106.658,108.717l1.55-0.02c0,0,0.438,2.645-0.478,5.289c-0.913,2.647-1.072,3.061-1.23,4.305
						c-0.159,1.243,0.08,3.061,0.218,3.633c0,0,1.033-0.119,2.682,0c1.649,0.119,3.913,0.57,4.767,0.631
						c0.855,0.061,1.371,0.258,2.127,0.375c0.754,0.119,2.128,0.264,2.128,0.264s2.638-0.164,2.638,0.094
						c0,0.361-4.707,0.137-9.553-0.021c-4.848-0.158-4.966,0-5.84,0.237c-0.875,0.236-1.312,0.118-1.312,0.118
						s-0.199-3.356,0.834-6.001c1.032-2.646,1.788-4.107,2.025-5.687c0.239-1.579,0.239-2.724,0.239-2.724L106.658,108.717z"/>
					<path fill="#1D2851" d="M110.006,123.633c0,0,1.39,1.5,2.898,2.725c1.512,1.222,2.543,3.551,2.742,4.262
						c0.198,0.711-0.039,1.026-0.119,2.132c-0.08,1.106-0.318,3.001-1.908,4.62c-1.588,1.619-1.706,1.736-1.706,1.736
						s5.243,0.789,5.839,0.711s-0.557-0.986-0.715-1.895s1.55-3.357,1.708-5.014c0.161-1.659-0.557-3.553-1.589-5.252
						s-2.898-3.475-3.217-3.632C113.62,123.868,111.914,123.281,110.006,123.633z"/>
					<path fill="#46498D" d="M110.435,123.566c0,0,1.239,1.447,2.433,2.275c1.189,0.83,2.938,2.883,3.376,5.014
						c0.437,2.133,0.557,2.686,0.517,3.555c0,0-0.393-0.973-0.795-1.502c0,0-0.199,2.252-0.913,3.396s-2.423,2.909-2.423,2.909
						l-1.312-0.382c0,0,2.741-2.725,2.941-3.396c0.197-0.672,0.99-2.686,0.516-4.027c-0.479-1.342-1.392-3.436-2.346-4.184
						c-0.953-0.752-2.461-2.053-2.78-2.725C109.331,123.829,109.251,123.709,110.435,123.566z"/>
					<path fill="#1D2851" d="M136.908,113.771c0,0-0.203,0.038-0.144,0.432c0.059,0.396,1.031,3.931,1.031,3.931
						s0.479,1.224,0.261,1.36c-0.221,0.139-1.969,0.594-2.783,1.127c-0.812,0.533-1.152,1.263-1.152,1.263s3.238-0.475,4.47-0.454
						c1.229,0.02,1.749-0.1,1.749-0.1s0.336-0.158-0.438-2.268c-0.773-2.115-2.061-5.713-2.061-5.713
						S136.773,113.582,136.908,113.771z"/>
					<path fill="#46498D" d="M141.004,121.162c0.217-0.117,0.279-0.157,0.06-1.045c-0.217-0.889-1.27-3.574-1.27-3.574l-1.557-3.719
						l-0.702,0.603c0,0,0.668,2.013,1.145,3.097c0.477,1.086,1.055,2.785,1.191,3.336c0.143,0.553,0.338,1.284,0.338,1.284
						L141.004,121.162z"/>
					<path fill="#1D2851" d="M135.294,109.367c0.224,0.801,0.587,1.804,0.632,2.105c0.043,0.305,0.238,0.027,0.463-0.273
						c0.23-0.301,0.619-0.668,0.619-0.668s-0.861-1.757-1.197-3c-0.338-1.242-0.678-3.414-0.678-3.414
						c-0.135-1.348-0.748-3.66-1.887-4.482c0.32,2.65,0.675,4.791,1.262,6.898C134.758,107.429,135.07,108.566,135.294,109.367z"/>
					<path fill="#46498D" d="M136.146,109.189c0.16,0.414,0.756,1.424,0.756,1.424l0.746-0.495c0,0-0.924-1.678-1.262-2.804
						c-0.34-1.125-0.756-2.823-0.993-3.414c-0.24-0.594-0.755-1.402-0.755-1.402s0.383,2.127,0.436,2.625
						C135.201,106.297,135.742,108.129,136.146,109.189z"/>
					<path fill="#000002" d="M98.405,95.893c0.07-0.109,0.192-0.311,0.299-0.537c0.162-0.343,0.172-0.381,0.443-0.367
						c0.271,0.013,0.874,0.393,0.874,0.393s0.604-1.004,0.677-1.727c0.073-0.721,0.073-3.106-0.038-4.294
						c-0.11-1.187-0.159-1.859-0.11-2.716c0.05-0.856-0.144-0.567,0.382-1.528c0.525-0.961,0.8-1.848,0.886-2.754
						c0.087-0.905,0.21-1.187,0.333-1.529c0.123-0.343,0.148-0.808,0.185-1.138c0.037-0.33,0.071-0.917,0.111-1.517
						c0.04-0.599-0.074-0.893-0.011-1.223c0.061-0.331,0.381-0.539,1.12-0.464c0.738,0.073,0.689,0.293,0.911,0.453
						c0.222,0.159,0.222,0.686,0.259,1.002c0.038,0.319,0.185,0.833,0.185,1.505c0,0.673-0.258,1.518-0.357,1.763
						c-0.098,0.244-0.185,2.569-0.196,3.034c-0.011,0.465-0.012,0.464-0.012,0.464s0.775-0.612,1.636-0.819
						c0.863-0.208,1.884-0.378,2.204-0.159c0.319,0.22,0.418,0.649,0.542,1.053c0.122,0.404,0.223,0.758,0.086,0.832
						c0,0,0.406,0.184,0.59,0.501c0.185,0.317,0.566,1.138,0.64,1.529c0.075,0.391,0.147,0.833-0.037,1.077
						c-0.186,0.245-0.382,0.356-0.408,0.427c-0.022,0.074,0.247,0.821,0.173,1.114c-0.074,0.293-0.615,0.638-1.132,1.113
						c-0.518,0.478-0.763,0.575-1.01,0.612c-0.247,0.037-0.406,0.012-0.406,0.012s0.074,1.346-0.148,2.115
						c-0.222,0.773-0.616,1.199-1.047,1.652s-0.652,0.586-0.652,0.586s-0.148,0.92-0.641,1.617c0,0,1.099-0.934,1.675-1.525
						s1.53-1.896,1.708-2.232c0.179-0.334,0.04-1.104-0.079-1.36c-0.119-0.258-0.08-0.571,0.06-0.632
						c0.139-0.06,0.735-0.08,1.092-0.039c0.358,0.039,0.576,0.139,1.253,0.061c0.675-0.08,1.846-0.535,1.985-0.652
						c0.053-0.045,0.086-0.178,0.12-0.357c0,0,0.015-1.511,1.017-1.564c0.255-0.058,0.473-0.053,0.473-0.053
						c0.092-0.852,0.566-1.121,0.566-1.121c0.156-0.665,0.701-1.592,0.811-1.964c0.109-0.372,0.171-1.548,0.42-2.042
						c0.25-0.494,0.478-1.125,0.478-1.125c-0.185,0.059-0.431-0.059-0.815-0.406c-0.384-0.348-0.384-0.544-0.361-1.042
						c0.023-0.498-0.082-0.487-0.082-0.487c-0.255,0.259-0.791,0.822-0.826,0.753c-0.037-0.069-0.106-0.614,0-1.46
						c0.104-0.845,0.605-2.096,0.605-2.096l-1.143,0.845c-0.104-1.228,1.178-2.258,1.178-2.258c-0.337,0.008-0.828-0.093-1.26-0.312
						c-0.431-0.22-1.119-1.078-1.014-1.055c0.105,0.023,0.502,0.116,1.387,0.127c0.887,0.012,1.341-0.335,1.341-0.335
						c-0.513-0.093-1.037-0.464-1.527-0.799c-0.489-0.337-1.935-0.927-3.333-1.866c-1.398-0.937-1.987-1.58-1.987-1.58
						s-1.05-0.962-1.363-1.981c-0.012-0.208,0-0.208,0.372-0.082c0.373,0.127,1.935,1.263,3.159,1.563c0,0,0.723,0.301,1.83,0.209
						c1.107-0.092,2.483-0.648,3.263-1.25c0.781-0.602,1.645-1.251,3.041-1.692c1.399-0.439,3.333-0.856,5.7-0.879
						c2.364-0.023,4.638,0.811,5.735,1.749c1.094,0.938,1.363,2.049,1.258,3.277c0.27,0.275,0.656,0.3,0.943,0.686
						c0.225,0.301,0.375,0.619,0.375,1.424s-0.006,1.52,0.306,1.807c0.312,0.286,0.702,0.487,1.186,0.58
						c0.481,0.093,1.065,0.101,1.189,0.085c0.125-0.016,0,0.279-0.341,0.441c-0.345,0.162-0.726,0.201-0.726,0.201
						s-0.71,0.773-1.743,0.634c0,0,0.134,0.18,0.11,0.287c0,0,1.158,0.108,1.501,0.069c0,0-0.412,0.649-1.104,0.649
						c0,0,0.429,0.681,0.38,1.369c-0.046,0.688-0.504,0.858-0.926,1.338c-0.234,0.267-0.491,0.397-0.709,0.452l0,0
						c-0.063,0.313-0.119,1.37-0.04,2.268c0.079,0.897,0.278,1.33,0.48,1.917c0.202,0.587,0.405,1.315,0.327,2.136
						c-0.078,0.818-0.092,1.113-0.327,1.407c-0.231,0.294-0.964,1.377-1.321,1.811c-0.254,0.306-0.832,1.21-1.264,1.679l0.046,0.352
						c0,0,0.06,0.079,0.397,0.297c0.336,0.217,1.111,0.395,2.026,0.355c0.911-0.04,2.451-0.238,2.831-0.168
						c0.375,0.066,0.268,0.354,0.107,0.76c-0.16,0.404-0.407,1.035-0.287,1.609c0.121,0.571,1.896,1.371,2.402,1.688
						c0.507,0.316,0.578,0.247,1.281,1.303c0.705,1.057,0.506,1.195,0.548,1.284c0.038,0.089,1.163,0.759,1.905,1.036
						c0.746,0.277,1.76,0.622,2.117,0.859s0.664,0.799,0.943,0.987c0.278,0.187,0.795,0.484,1.102,0.958
						c0.307,0.473,1.033,1.924,0.864,3.494c-0.169,1.568-0.536,2.654-0.847,3.818c-0.305,1.166-0.624,1.709-0.792,1.738
						c-0.169,0.029-0.682-0.381-0.682-0.381s-0.316,0.533-0.526,1.086c-0.209,0.554-0.496,0.596-0.695,0.522
						c0,0-0.029,0.69-0.238,0.968c-0.207,0.277-0.613,0.878-0.693,1.047c-0.081,0.167-0.289,0.414-0.547,0.482
						c-0.145,0.041-0.344,0.037-0.488,0.029c0.055,0.133,0.086,0.213,0.086,0.213s0.378,0.889,0.676,1.994
						c0.299,1.105,0.277,1.146,0.299,1.362c0.02,0.216-1.191,0.671-1.788,1.263c-0.597,0.593-1.589,0.928-1.589,0.928l-0.023-0.002
						c0.062,0.923,0.448,2.434,0.648,4.176c0.219,1.896,0.08,2.291-0.635,4.027c-0.715,1.738-1.988,3.495-2.583,4.482
						c-0.596,0.987-0.537,1.361-0.557,1.461c-0.021,0.1-1.409,0.258-1.808,0.197c-0.396-0.059-0.893-0.098-0.893-0.098
						c0.178,0.295,0.475,0.533,1.072,0.807c0.597,0.279,2.185,1.068,2.463,1.049c0.276-0.02,1.646-0.158,2.045-0.158
						s2.187,0.021,3.02,0.514c0.836,0.492,0.615,1.045,0.615,1.262c0,0.219-0.396,0.179-1.172,0.238
						c-0.776,0.059-3.198,0.178-4.649,0c-1.449-0.178-2.282-0.83-2.898-1.166c-0.616-0.334-1.353-0.453-1.55-0.512
						c-0.198-0.059-0.258,0.552-0.258,0.552c-0.656,0-1.51-0.138-1.51-0.138s0.039-0.275,0.277-0.891
						c0.238-0.609,0.596-1.318,0.596-1.318l-0.893,0.02c0,0,0.06-0.14,0.18-0.417c0.117-0.275,0.477-1.144,0.713-1.696
						c0.24-0.554,0.36-1.225,0.259-1.814c-0.099-0.594-0.476-2.885-0.675-3.516c-0.198-0.633-1.551-2.329-1.946-2.844
						c-0.397-0.512-0.579-0.58-0.579-0.58s0.12,4.303-3.218,8.094c-3.336,3.791-4.489,5.053-4.489,5.053s-2.303,0-4.289-0.315
						c0,0,0.188,0.306,1.281,0.938c1.094,0.631,1.489,1.027,2.266,1.203c0.773,0.178,1.947-0.176,3.375,0.061
						c1.433,0.236,2.484,0.927,2.9,1.42c0.418,0.494,0.498,1.066,0.477,1.619c0,0-0.197,0.396-2.721,0.396
						c-2.522,0-4.471-0.276-5.88-0.948c-1.41-0.671-1.827-1.305-2.921-2.093c-1.092-0.788-1.47-1.046-1.47-1.046
						s-0.138,0.633-0.337,0.968c-0.198,0.335-0.437,0.078-0.754-0.021c-0.317-0.098-0.854-0.314-1.112-0.375
						c0,0,0.496-0.967,0.614-1.463c0.119-0.491,0.557-1.221,0.557-1.221s-0.675-0.336-0.774-0.455
						c-0.099-0.117,0.417-0.553,0.815-1.166c0.396-0.611,2.045-1.775,2.501-3.788c0.458-2.013-0.218-3.908-1.151-5.153
						c-0.935-1.242-2.006-1.936-2.384-2.309c-0.378-0.375-0.974-0.812-0.974-0.812s-1.767-0.274-3.456-0.809
						c-1.688-0.532-2.364-0.75-2.443-1.085c-0.08-0.336,0.198-2.765,0.516-4.322c0.318-1.562,0.736-2.766,1.113-3.574
						c0.378-0.81,1.49-3.08,1.549-4.58c0.037-0.896,0.022-1.547,0.005-1.93c-0.189,0.119-0.388,0.234-0.59,0.34
						c-1.212,0.631-3.138,1.341-3.834,1.914c-0.696,0.574-3.159,1.402-4.688,1.205s-2.482-2.191-3.119-3.139
						c-0.635-0.948-0.934-2.467-0.954-3.041c-0.02-0.57,0.199-1.104,0.438-1.697c0.238-0.592,1.231-2.881,1.53-3.947
						c0.297-1.066,1.29-4.758,1.4-5.084c0.024-0.146,0.246-0.158,0.492-0.122C97.915,95.807,98.213,95.859,98.405,95.893
						L98.405,95.893z M130.047,100.017c0,0-0.357-0.54-0.863-1.017c-0.505-0.477-0.699-0.832-1.021-1.309
						c-0.318-0.477-0.604-0.941-0.604-0.941s-0.022,0.894-0.184,1.076c-0.055,0.062-0.139,0.092-0.238,0.102l0,0
						c0.049,0.732,0.663,1.386,0.748,1.898c0.087,0.514,0.296,2.18,0.42,3.109c0.121,0.929,0.274,3.107,0.75,4.404
						c0.477,1.296,1.01,1.554,1.466,1.969c0.053,0.051,0.099,0.092,0.139,0.133c0.217-0.256,0.333-3.568,0.173-5.621
						C130.674,101.768,130.047,100.017,130.047,100.017L130.047,100.017z M135.926,111.473c0.47-0.933,1.258-1.355,1.432-1.439
						c-0.293-0.541-1.09-2.054-1.219-2.6c-0.159-0.672-0.217-1.008-0.774-2.646c-0.557-1.638-1.907-4.678-1.907-4.678
						c0.055,0.352,0.357,2.447,0.635,3.83c0.279,1.381,0.836,3.475,1.135,4.502C135.521,109.465,135.926,111.473,135.926,111.473
						L135.926,111.473z M140.656,108.113c0,0,0.277-0.65,0.717-1.5c0.437-0.849,1.131-1.461,1.963-1.344
						c0.836,0.119,1.354,1.146,1.867,1.816c0.519,0.672,0.597,0.959,0.219-0.592c-0.278-1.148-1.115-1.875-1.529-2.172
						c-0.926-0.408-1.679-0.206-2.49,0.169c-0.814,0.376-0.855,0.425-0.953,1.599C140.348,107.266,140.656,108.113,140.656,108.113
						L140.656,108.113z M142.622,103.494c-0.139-0.154-0.437-0.453-1.446-0.73c-1.015-0.277-1.907-0.77-2.287-1.145
						c-0.378-0.375-0.914-1.758-1.549-2.428c-0.635-0.672-1.709-1.046-2.504-1.561c-0.793-0.514-0.477-1.599-0.257-2.33
						c0.217-0.73-0.38-0.621-1.213-0.434s-2.563-0.06-2.561,0.137c0,0.197,0.257,0.258,1.092,0.495
						c0.833,0.237,1.349,0.237,1.349,0.237c-0.1,0.361,0.006,1.223,0.073,1.688c0.2,0.373,0.593,0.828,1.228,1.204
						c0.637,0.375,1.473,1.321,1.473,1.321c0.196,0.869,0.396,2.488,0.396,2.488c0.237-0.256,0.477-1.776,0.477-1.776
						c0.158,0.099,0.537,0.987,1.053,1.854c0.514,0.87,0.835,1.777,0.835,1.777l0.079-1.48c0,0,0.179,0.257,0.755,0.454
						c0.575,0.196,0.733,0.553,0.733,0.553c-0.355,0.454-0.873,1.56-0.693,1.48c0.18-0.077,0.693-0.632,1.489-1.164
						C141.937,103.603,142.622,103.494,142.622,103.494L142.622,103.494z M129.33,93.835c-0.326-0.108-1.072-0.093-1.072-0.093
						c-0.537,0.168-0.716,0.123-1.013,0.278c-0.294,0.155-0.606,0.294-0.606,0.294l-0.033,0.013
						c0.125,0.222,0.572,1.011,0.793,1.407c0.26,0.465,0.968,1.412,1.189,1.707c0.221,0.293,0.363,0.637,0.529,0.777
						c0.164,0.137,0.634,0.73,0.764,0.945c-0.069-0.391-0.209-1.16-0.35-1.955C129.33,96.073,129.33,93.835,129.33,93.835
						L129.33,93.835z M139.914,111.412c-0.227,0.21-0.385,0.568-0.646,0.83l0,0c0,0,0.856,0.249,1.384,0.564
						c0.527,0.316,1.162,0.811,1.39,1.136s0.318,0.622,0.517,0.593c0.197-0.029,0.25-0.051,0.387-0.436
						c0.139-0.385,0.35-0.818,0.35-0.818c-0.356-0.4-1.615-1.318-2.061-1.525C140.784,111.549,139.914,111.412,139.914,111.412
						L139.914,111.412z M138.982,112.509c-0.115,0.103-0.235,0.2-0.355,0.294c0.006,0.318,0.977,2.35,1.176,2.961
						c0.105,0.334,0.342,0.932,0.533,1.408c0,0,0.445,0.077,0.645-0.11c0.196-0.188,0.207-0.306,0.556-0.79
						c0.345-0.484,0.692-1.135,0.458-1.52c-0.238-0.385-0.678-0.957-1.332-1.353c-0.656-0.396-0.733-0.464-1.084-0.603
						C139.346,112.705,139.111,112.582,138.982,112.509L138.982,112.509z M138.087,113.191c-0.42,0.281-0.73,0.455-0.944,0.557
						c-0.021,0.012-0.049,0.023-0.067,0.031c-0.065,0.029-0.056,0.225-0.034,0.303c0.119,0.42,0.285,0.985,0.389,1.298
						c0.158,0.474,0.832,2.743,1.052,3.138c0,0,0.161,1.006,0.198,1.362c0,0-1.728,0.375-2.424,0.712
						c-0.693,0.334-1.709,0.946-1.709,0.946s1.213-0.296,2.484-0.395s3.102-0.179,3.636-0.218c0.536-0.037,0.477-0.078,0.179-1.066
						c-0.297-0.986-0.953-2.447-0.953-2.447s-1.44-3.641-1.54-3.938C138.303,113.326,138.19,113.242,138.087,113.191
						L138.087,113.191z M129.1,115.986c0.396-0.889,0.748-1.473,0.83-1.82c-1.451-0.515-2.893-1.773-3.496-2.729
						c-0.603-0.956-0.916-1.832-0.997-3.131c-0.079-1.303,0.062-3.293,0.113-3.941c0.047-0.648,0.035-4.135,0.022-4.305
						c-0.012-0.173-0.172-0.551-0.295-0.846c-0.055-0.133-0.1-0.27-0.126-0.382c-0.007-0.001-0.011-0.003-0.015-0.005
						c-0.445-0.109-0.531-0.672-0.615-0.881c-0.088-0.207-0.27-0.172-0.492-0.549c0,0-0.246-0.195-0.457-0.355
						c-0.209-0.16-0.221-0.195-0.221-0.195l-0.739-0.013c0,0-0.136,0.281-0.505,0.76c-0.369,0.478-0.504,0.624-0.764,1.101
						c-0.157,0.291-0.524,0.646-0.786,0.876c0.151,0.229,1.935,3.589,2.472,5.285s0.615,1.778,1.191,3.454
						c0.576,1.68,1.719,4.469,2.105,5.311s1.867,3.634,2.007,3.713C128.471,117.41,129.1,115.986,129.1,115.986L129.1,115.986z
						 M120.303,99.186l-0.033-0.051l0.022-0.015c0,0,1.06-1.272,1.7-2.252c0.49-0.747,0.943-1.521,1.13-1.843
						c-0.391,0.053-1.018,0.146-1.54,0.062c-0.579-0.093-0.749-0.388-1.169-0.603c-0.42-0.218-1.276-0.388-2.04-0.62
						c-0.763-0.232-1.135-0.525-1.696-1.051c-0.561-0.526-1.026-1.098-1.79-1.936c-0.339-0.372-0.462-0.752-0.48-1.119
						c0,0-0.154,0.275-0.223,0.677c-0.078,0.71,0.076,1.083,0.423,1.548c0.349,0.467,1.133,1.502,1.728,2.213
						c0.598,0.711,3.318,3.967,3.617,4.578C120.073,99.029,120.197,99.141,120.303,99.186L120.303,99.186z M113.793,90.141
						c-0.01-0.002-0.021-0.006-0.033-0.01c-0.447-0.137-0.947,0.455-0.91,1.735c0.287,0.653,0.635,1.716,0.76,2.462
						c0.24,1.436,0.053,3.104,0.053,3.104s2.723,0.097,3.677,0.747c0.157,0.105-1.773,1.638-1.862,1.875
						c1.141,1.298,2.166,3.211,3.391,4.984c2.303,3.342,4.83,6.707,6.92,10.164l0.034,0.057c0.077-0.23-0.272-0.943-0.569-1.656
						c-0.297-0.723-1.43-3.062-1.947-4.068c-0.516-1.008-1.628-2.487-1.964-3.1c-0.338-0.611-0.865-1.342-0.865-1.342
						s0.14,0.117,0.706,0.612c0.564,0.492,1.31,1.412,1.31,1.412c-0.04-0.237-0.444-0.898-0.823-1.521
						c-0.378-0.621-0.982-1.945-1.459-2.566s-2.135-2.418-2.135-2.418s0.047,0.01,0.664,0.218c0.615,0.206,1.904,0.72,1.904,0.72
						c-0.097-0.256-0.99-1.057-1.607-1.264c-0.615-0.206-1.111-0.681-1.111-0.681s0.317,0.217,0.586,0.246
						c0.27,0.03,0.773,0.188,0.773,0.188s-0.308-0.316-0.834-0.918c-0.525-0.604-0.804-1.562-0.854-1.709
						c-0.049-0.147-0.039-0.157-0.437-0.424c-0.396-0.266-1.439-1.095-1.753-1.324c-0.312-0.229-0.353-0.799-0.541-1.182
						c-0.189-0.387-0.369-0.84-0.725-1.61c-0.357-0.771-0.517-1.688-0.458-2.212C113.707,90.432,113.752,90.261,113.793,90.141
						L113.793,90.141z M113.164,124.283c0,0-1.33-0.236-2.026-0.316c-0.694-0.079-1.291-0.039-0.993,0.337
						c0.299,0.375,1.73,1.837,2.562,2.644c0.835,0.811,1.987,2.469,2.285,3.673c0.297,1.204,0.416,3.118-0.041,4.243
						c-0.455,1.127-1.311,1.777-1.787,2.291c-0.476,0.513-1.271,1.48-1.271,1.48s1.371,0.434,2.702,0.593
						c1.33,0.157,2.801,0.117,2.801,0.117s-1.709-1.185-1.848-1.401c-0.141-0.218,0.078-0.553,0.695-1.343
						c0.614-0.79,1.807-2.31,1.847-4.185s-0.835-3.436-1.827-4.797C115.27,126.258,113.164,124.283,113.164,124.283L113.164,124.283
						z M119.992,122.984c-0.797-0.194-2.776-0.574-4.126-0.934c-1.788-0.473-3.237-0.828-4.489-1.105
						c-1.252-0.275-2.304-0.295-2.444-0.434c0,0,0.478-0.613,1.173-1.363c0.694-0.75,1.032-1.243,1.032-1.243
						s-1.112,0.435-1.788,0.731c-0.675,0.295-1.827,1.144-1.629,0.809c0.198-0.336,2.265-1.815,3.06-2.586
						c0.793-0.77,1.191-1.166,1.191-1.166s-2.483,0.791-3.615,1.562c0,0,0.517-0.929,2.224-2.033
						c1.709-1.106,2.763-1.481,2.861-1.618c0.099-0.139-2.622,0.81-4.052,1.953c0,0,0.516-1.008,2.821-2.172
						c0,0-1.946,0.732-2.523,1.324c-0.577,0.592-1.948,2.348-1.948,2.348s0.18-1.105,0.557-2.014
						c0.378-0.906,0.656-1.559,0.656-3.039s-0.219-3.889-0.219-3.889s-0.401,0.368-0.996,0.799c0.056,0.516,0.145,1.935-0.285,3.633
						c-0.543,2.143-1.232,3.414-1.549,4.088c-0.318,0.67-0.974,2.506-1.073,3.908c-0.099,1.4-0.178,2.842-0.178,2.842
						s0.973-0.81,4.39-0.691c3.416,0.119,2.642,0.061,3.595,0.179c0.954,0.117,2.066,0.236,3.317,0.296
						c1.25,0.059,3.594,0.126,4.15-0.025C120.206,123.115,120.055,123,119.992,122.984L119.992,122.984z M106.413,100.527
						c0.064-0.107,0.119-0.145,0.119-0.145s-0.06,0.027-0.163,0.07h0.001C106.371,100.453,106.388,100.479,106.413,100.527
						L106.413,100.527z M99.318,98.572c0,0-0.615-0.796-1.046-1.309c-0.431-0.514-0.762-0.76-0.762-0.76s-0.435,2.728-0.932,4.346
						c-0.497,1.619-1.53,3.752-1.788,4.52c-0.259,0.771-0.396,1.904,0,2.943c0.396,1.038,1.354,2.023,1.867,2.901
						c0.512,0.877,2.125,1.106,3.476,0.809c0,0-0.139-0.079-0.814-0.413c0,0-0.317-0.16-0.695-0.889
						c-0.378-0.73-0.656-1.5-0.715-2.764c-0.06-1.263-0.238-3.414-0.238-3.414s0.715,0.888,1.033,1.105
						c0.318,0.216,0.597,0.532,0.597,0.532s-0.616-1.224-0.874-2.231c-0.259-1.006-0.477-1.934-0.397-2.428
						c0.079-0.492,0.576,1.52,0.755,2.092c0.178,0.574,0.496,1.186,0.496,1.186s-0.139-1.401-0.357-2.23
						c-0.22-0.829-0.338-1.047-0.318-1.324c0.02-0.275,0.119-1.242,0.119-1.242s0.219,1.186,0.317,1.758
						c0.1,0.571,1.133,2.625,1.908,2.98C100.948,104.738,99.423,101.684,99.318,98.572L99.318,98.572z M112.576,92.098
						c-0.002,0.002-0.006,0.006-0.008,0.006c-0.152,0.182-1.569,0.692-2.205,0.692c-0.635,0-1.489-0.138-1.489-0.138
						s0.903,0.779,1.439,1.963c0.536,1.186,0.675,1.461,0.835,3.1c0.158,1.64,0.02,2.33-0.198,3.277
						c-0.22,0.947-0.259,1.816-0.259,1.816s0.615-1.678,0.993-2.525c0.377-0.85,0.1-3.239,0-3.989
						c-0.101-0.751-0.179-1.124-0.14-1.264c0.039-0.138,0.377-0.257,0.377-0.257s1.006,0.686,1.251,1.244c0,0,0.2-0.791-0.019-1.816
						C112.992,93.447,112.711,92.523,112.576,92.098L112.576,92.098z M108.66,93.045c0.075,1.203,0.086,0.969-0.342,1.726
						c-0.438,0.771-0.874,1.241-1.629,2.111c-0.755,0.87-1.509,1.495-1.509,1.495c0.319,0.122,0.467,0.16,0.53,0.207
						c0.061,0.05,0.012,0.307-0.025,0.49c-0.013,0.064-0.053,0.148-0.099,0.232c0.033,0.001,0.069,0.007,0.111,0.013
						c0.234,0.038,0.726,0.012,0.825,0.012c0.098,0,0.011,1.052,0.011,1.052s0.265-0.035,0.305,0.121
						c0.039,0.16,0.179,0.375,0.179,0.375s0.259-2.288,0.337-2.525c0.081-0.238,0.344,3.705,0.398,4.165c0,0,0.814-2.251,1.033-2.96
						c0.219-0.713,0.576-1.404,0.576-2.469c0,0,0.12-0.395,0.238,0.927c0.119,1.323,0.138,3.001,0.197,2.862
						c0.061-0.137,0.755-3.119,0.716-3.77c-0.038-0.65-0.138-1.164-0.298-1.678c-0.159-0.513-1.103-1.807-1.331-2.131
						C108.81,93.193,108.731,93.108,108.66,93.045L108.66,93.045z M126.73,97.919c-0.08-0.005-0.16-0.009-0.23-0.007
						c-0.283,0.012-0.603,0.16-0.763,0.414c-0.099,0.158-0.138,0.354-0.253,0.457c0.123,0.303,0.393,0.725,0.479,1.043
						c0.112,0.404,0.101,1.773,0.101,2.447c0,0.672-0.111,4.244-0.124,5.138s-0.071,1.606,0.441,2.887
						c0.514,1.282,2.036,2.777,3.388,3.171c1.35,0.393,4.849,0.72,6.512,0.195c1.662-0.527,3.097-2.049,3.422-2.79
						c0.326-0.739,0.357-2.36,0.271-2.435c-0.087-0.074-0.209,0.085-0.369,0.305c-0.16,0.223-1.021,1.09-1.736,1.457
						s-1.255,0.982-1.255,0.982c-0.271,0.736-1.083,1.488-1.489,1.636c-0.407,0.146-1.539,0.319-2.08,0.293
						c-0.541-0.022-1.726-0.037-1.726-0.037s0.087-0.022,0.737-0.11c0.655-0.084,1.222-0.096,1.936-0.182
						c0.713-0.086,1.328-0.576,1.328-0.576s-0.442,0.05-1.451-0.244c-1.01-0.294-2.059-1.016-3.092-1.812
						c-1.033-0.793-1.723-1.614-1.884-1.931c-0.159-0.319-0.542-1.444-0.7-2.827c-0.16-1.383-0.529-3.818-0.639-4.846
						c-0.112-1.025-0.42-1.31-0.641-1.713C126.692,98.432,126.73,97.919,126.73,97.919L126.73,97.919z M126.135,94.514l-0.039,0.016
						c0,0-0.391,0.079-0.547,0.142c-0.154,0.061-0.312,0.187-0.732,0.199c-0.25,0.011-0.635,0.04-0.984,0.075
						c0,0-0.754,1.26-0.783,1.375c-0.033,0.117,0.504,0.196,1.007,0.196c0.507,0,1.171,0.073,1.38,0.135
						c0,0-0.369,0.196-0.633,0.226c-0.266,0.031-0.574-0.048-0.604-0.042c-0.029,0.007,0.147,0.269,0.304,0.446
						c0.152,0.178,0.374,0.264,0.441,0.447c0.066,0.184,0.057,0.325,0.238,0.314c0.182-0.008,0.328-0.162,0.573-0.364
						c0.249-0.2,0.689-0.208,0.942-0.189c0.253,0.02,0.4,0.02,0.389-0.293c-0.015-0.312,0.006-1.163,0.006-1.163
						s-0.493-0.809-0.746-1.155C126.229,94.713,126.165,94.594,126.135,94.514L126.135,94.514z M131.588,82.359
						c-0.032-0.003-0.062-0.008-0.088-0.016c-0.201-0.053-0.414-0.217-0.365-0.657c0.046-0.441,0.078-0.766,0.078-0.766
						s-0.367-0.023-0.373-0.797c-0.008-0.773-0.04-1.199-0.11-1.616c-0.071-0.418-0.056-0.596-0.124-0.889
						c-0.069-0.295-0.093-0.565-0.093-0.565s-0.251-0.147-0.405-0.727c-0.156-0.58-0.055-0.433-0.248-0.796
						c-0.194-0.363-0.275-1.074-0.161-1.612l0,0l-0.04,0.031c-0.466,0.104-1.213,0.429-2.248,0.938
						c-1.038,0.51-2.133,0.812-2.133,0.812c-2.227,0.324-3.858,0.185-5.164,0.115c-1.305-0.069-2.377-0.371-2.436-0.197
						c-0.059,0.174-0.338,0.406-0.549,0.649c-0.209,0.242-0.373,1.042-0.5,2.003c-0.129,0.962-0.141,2.177-0.119,2.282
						c0.026,0.105,0.283,0.394,0.352,0.637s0.268,0.51,0.57,1.146c0.305,0.636,0.106,1.042,0.07,1.123
						c-0.034,0.082-0.102-0.519-0.244-0.846c-0.144-0.327-0.305-0.463-0.305-0.463l-0.255,1.065
						c-0.093,0.387-0.661,1.554-0.784,2.282c-0.125,0.728-0.172,1.19,0.201,2.552c0.375,1.362,1.512,2.615,1.541,2.816
						c0.033,0.199-0.67-0.525-1.354-1.562c-0.686-1.038-0.824-2.167-0.824-2.167s-0.096,0.092-0.219,0.448
						c-0.124,0.356-0.574,1.257-0.484,2.073c0.092,0.817,0.203,0.697,0.842,1.5c0.639,0.806,1.979,1.843,2.506,2.106
						c0.53,0.262,1.12,0.309,1.12,0.309s-0.029-0.092-0.31-0.371c-0.281-0.277-0.811-0.989-0.764-1.066
						c0.047-0.078,0.545,0.494,0.997,0.883c0.452,0.385,1.501,1.039,2.069,1.406c0.569,0.367,1.012,0.201,1.012,0.201
						s-0.452-1.006-0.84-1.593c-0.391-0.589-0.59-1.332-0.59-1.332s0,0,0.437,0.466c0.436,0.463,1.056,1.9,1.414,2.164
						s1.62,0.217,2.429,0.062c0.81-0.156,1.635-0.541,1.76-0.666c0.125-0.123,0.421-0.881,0.576-1.545
						c0.156-0.667,0.297-1.132,0.297-1.132c0.135,1.024-0.36,2.539-0.36,2.539c0.265-0.094,0.872-0.311,1.573-0.202
						c0.702,0.108,0.686-0.355,1.013-0.743c0.327-0.386,0.979-1.376,1.571-2.15c0.592-0.772,0.482-0.663,0.668-1.313
						c0.188-0.65,0.031-1.548-0.203-2.274c-0.234-0.727-0.246-1.037-0.387-1.763c-0.14-0.728-0.281-1.595-0.281-1.595
						c0.095,0.125,0.234,0.279,0.234,0.279L131.588,82.359L131.588,82.359z M131.893,79.246c0,0.147-0.008,0.874-0.038,0.982
						c-0.032,0.108-0.062,0.201,0.017,0.201s0.256,0.04,0.348,0.101c0.096,0.062,0.251,0.062,0.297-0.008
						c0.047-0.07,0.258,0.023,0.264,0.124c0.01,0.1-0.053,0.255-0.264,0.17s-0.477-0.309-0.676-0.232
						c-0.205,0.077-0.363,0.147-0.396,0.484c-0.034,0.336-0.126,1.016,0.083,1.048c0.211,0.031,0.668-0.125,0.942-0.512
						c0.271-0.387,0.122-0.294,0.373-0.557c0.249-0.263,0.437-0.587,0.271-1.105c-0.16-0.519-0.287-0.712-0.287-0.712
						S132.253,79.277,131.893,79.246L131.893,79.246z M130.979,78.208c0,0,0.034,0.404,0.134,0.691
						c0.101,0.286,0.095,0.518,0.112,1.066c0.023,0.548,0.045,0.501,0.085,0.535c0.04,0.035,0.311-0.278,0.311-0.278l-0.046-1.087
						C131.204,78.961,130.979,78.208,130.979,78.208L130.979,78.208z M130.814,77.455c0.204,0.333,0.484,0.999,0.662,1.169
						c0.179,0.17,0.568,0.27,1.151,0.301c0.585,0.031,1.028-0.186,1.028-0.186s-0.164,0.022-0.609,0.015
						c-0.439-0.009-0.814-0.17-1.056-0.263c-0.243-0.093-0.304-0.558-0.304-0.558C131.398,77.842,130.814,77.455,130.814,77.455
						L130.814,77.455z M130.284,75.746c-0.062,0.124,0.101,0.681,0.28,0.951c0.182,0.272,0.71,0.774,1.302,1.021
						c0.591,0.247,1.392,0.077,1.696-0.032c0.304-0.107,0.412-0.138,0.412-0.138s-0.583-0.125-1.32-0.225
						c-0.74-0.1-1.288-0.564-1.488-0.804C130.964,76.28,130.284,75.746,130.284,75.746L130.284,75.746z M130.205,73.475
						c-0.266,0.248,0.453,0.905,0.613,1.053c0.553,0.511,1.268,0.511,1.188,0.545c-0.085,0.035-0.371,0.127-0.908-0.128
						c-0.535-0.255-1.08-0.819-1.119-0.789c-0.04,0.031-0.032,0.256,0.068,0.58c0.103,0.325,0.633,0.836,0.928,1.191
						c0.297,0.355,0.713,0.879,1.221,0.974c0.509,0.096,1.206,0.248,1.73,0.348c0.52,0.101,1.096-0.163,1.096-0.163
						s-0.709,0.016-1.189-0.147c-0.485-0.162-1.006-0.44-1.178-0.812c-0.17-0.371-0.17-1.291-0.162-1.817
						c0.007-0.527-0.297-1.122-0.607-1.315c-0.312-0.193-0.593-0.456-0.647-0.456C131.186,72.54,130.328,73.359,130.205,73.475
						L130.205,73.475z M115.466,80.99c0,0-0.101,1.021-0.017,1.323c0.086,0.302,0.445,0.643,0.717,0.651
						c0.273,0.007,0.305-0.017,0.336-0.087c0.031-0.069,0.109-0.556,0.109-0.78s-0.312-0.441-0.693-0.457
						c-0.383-0.015,0.038-0.279,0.202-0.302c0.165-0.021,0.366,0.209,0.452,0.209s0.124-0.031,0-0.279
						c-0.125-0.247-0.305-0.611-0.405-0.672C116.065,80.534,115.466,80.99,115.466,80.99L115.466,80.99z M116.466,76.84
						c0,0-1.097,0.349-1.603,0.829c-0.507,0.479-0.823,1.08-0.896,1.222c-0.075,0.141,0.654-0.495,1.262-0.812
						c0.607-0.317,0.771-0.38,0.817-0.38c0.047,0-0.49,0.449-0.958,1.146c-0.467,0.696-0.693,2.519-0.613,2.637
						c0.078,0.118,0.496-0.541,0.882-0.781c0.387-0.24,0.814-0.511,0.814-0.511s0.087-0.688,0.087-0.859
						c0,0-0.982,0.943-1.192,1.145s0-0.279,0.335-0.665c0.334-0.388,0.902-0.82,0.902-0.82l0.008-0.503c0,0-0.887,0.604-1.182,1.029
						c0,0,0.023-0.27,0.583-0.89c0.562-0.618,0.647-0.626,0.647-0.626S116.475,77.165,116.466,76.84L116.466,76.84z M116.33,75.359
						c-0.311-0.017-0.141,0.247-0.654,0.556c-0.514,0.31-1.026,0.356-1.635,0.403c-0.607,0.046-0.736,0.05-0.736,0.05
						s0.977,0.599,1.5,0.538c0.521-0.062,0.824-0.155,1.462-0.448c0.64-0.294,0.576-0.403,0.811-0.65
						c0.231-0.248,0.108-0.434-0.046-0.402C116.875,75.436,116.486,75.406,116.33,75.359L116.33,75.359z M113.871,74.507
						c0.063,0.237,1.105,0.65,1.572,0.836c0.465,0.187,0.451-0.139,0.451-0.139C115.318,75.05,113.871,74.507,113.871,74.507
						L113.871,74.507z M129.81,73.381c-0.194-0.092-0.785-0.395-1.312-0.862c-0.641-0.568-1.48-1.425-2.005-1.692
						c-0.524-0.265-0.956-0.567-1.249-0.648c-0.291-0.081-0.291-0.081-0.291-0.081s0.584,0.058,0.936,0.185
						c0.35,0.128,0.641,0.151,1.293,0.719c0.65,0.567,1.549,1.297,1.947,1.621c0.396,0.324,0.416,0.266,0.675,0.382
						c0.255,0.115,0.372,0.104,0.651-0.104c0.28-0.208,0.643-0.567,0.654-1.065c0.01-0.498-0.156-1.41-0.957-2.305
						c-0.799-0.894-2.598-1.611-4.535-1.83c-1.934-0.218-3.821,0.128-5.068,0.395c-1.248,0.266-2.763,0.764-3.496,1.309
						c-0.734,0.544-1.352,1.112-2.576,1.576c-1.224,0.463-2.388,0.66-3.531,0.417c-1.141-0.244-2.452-1.044-2.932-1.391
						c-0.482-0.347-0.376-0.149-0.296-0.011c0.08,0.136,0.702,0.91,1.413,1.485c0.019,0.014,0.038,0.029,0.056,0.044
						c0.295,0.249,0.926,0.771,1.929,1.431c1.002,0.661,3.264,1.448,4.37,1.807s2.878,0.463,4.383,0.625
						c1.503,0.163,4.321,0.104,5.36-0.082c1.037-0.186,2.261-0.822,2.483-0.961c0.22-0.138,0.873-0.37,0.873-0.37
						c-0.606,0.208-2.61,0.498-3.787,0.567c-1.177,0.069-2.47,0.058-3.402,0.081c-0.934,0.023-1.782-0.058-2.087-0.174
						c-0.304-0.116-1.295-0.475-2.681-1.24c-1.388-0.763-1.696-1.632-1.446-1.309c0.25,0.325,1.691,1.216,2.739,1.749
						s2.507,0.603,3.729,0.649c1.225,0.046,3.369-0.13,4.417-0.163c1.048-0.033,2.831-0.51,2.831-0.51
						c-0.418,0.012-2.004-0.163-2.912-0.289c-0.91-0.128-2.684-0.44-3.531-0.8c-0.852-0.359-2.123-0.908-1.96-0.887
						c0.163,0.021,0.852,0.168,1.899,0.598c1.05,0.429,1.947,0.359,3.299,0.661c1.352,0.3,3.193,0.429,3.706,0.487
						C129.599,73.415,129.725,73.403,129.81,73.381L129.81,73.381z M105.228,99.258c0,0,0.223-0.367,0.062-0.525
						c-0.16-0.16-0.775-0.332-0.775-0.332l-0.286,0.713c0.1,0.02,0.197,0.037,0.274,0.047
						C104.76,99.197,105.062,99.205,105.228,99.258L105.228,99.258z M103.74,99.015c0.079-0.202,0.488-1.222,0.787-1.591
						c0,0-1.062,0.118-1.428-0.404c0,0,0.256-0.07,0.609,0.064c0.354,0.133,0.88,0.156,1.016-0.149
						c0.136-0.308,0.085-0.356,0.085-0.356s-1.009,0.232-1.415-0.062c-0.406-0.294-0.628-0.44-0.567-0.487
						c0.062-0.05,0.407,0.268,0.961,0.268c0.555,0,1.169-0.109,1.28-0.184c0.112-0.074,0.616-0.527,0.998-1.004
						c0.381-0.478,0.714-0.871,0.788-2.373c0.073-1.502-0.263-2.328-0.157-2.382c0.105-0.058,1.129,0.155,1.215,0.362
						c0.087,0.207-0.407,0.099-0.529,0.025c-0.124-0.074-0.333-0.049-0.333-0.049s0.049,0.379,0.086,0.697
						c0,0,0.325,0.048,0.628,0.048c0,0,0.222-0.038,0.566-0.415c0.345-0.381,0.816-0.508,0.886-0.76
						c0.069-0.249-0.086-1.076-0.185-1.211c-0.099-0.136-1.379-0.258-2.068-0.109c-0.688,0.145-1.415,0.305-1.587,0.292
						s0.111-0.194,0.64-0.366c0.529-0.172,1.429-0.416,2.032-0.441c0.604-0.024,1.036,0.085,1.292,0.183
						c0.256,0.1,0.456-0.476,0.036-1.381c-0.417-0.906-0.479-1.015-0.812-1.089c-0.333-0.074-1.34,0.195-2.326,0.649
						c-0.984,0.452-1.587,0.734-1.698,0.758c-0.111,0.024,0.185-0.355,0.738-0.673c0.553-0.317,1.786-0.966,3.016-1.199
						c0,0,0.062-0.195-0.099-0.746c-0.16-0.55-0.16-0.759-0.418-0.807c-0.259-0.05-1.193-0.074-2.067,0.378
						c-0.875,0.453-2.035,1.303-2.419,1.278c-0.385-0.025,0.413-0.238,0.462-0.568s0.087-2.594,0.135-3.192
						c0.049-0.6,0.087-0.686,0.321-1.09c0.233-0.403,0.301-2.295,0.04-3.1c-0.261-0.802-0.409-0.839-0.768-0.876
						c-0.356-0.037-0.664,0.025-0.627,0.294c0.038,0.269,0.038,1.261-0.011,1.444c0,0,0.393,0.11,0.466-0.136
						c0.075-0.244,0.062-0.453-0.048-0.575c-0.112-0.122-0.271-0.245-0.172-0.355c0.098-0.11,0.4,0.186,0.508,0.429
						c0.107,0.244,0.009,0.648-0.237,0.892c-0.246,0.245-0.333,0.172-0.394,0.086s-0.161-0.086-0.161-0.086
						s-0.098,1.333-0.209,1.934c-0.11,0.599-0.147,0.526-0.356,1.626c-0.209,1.102-0.542,2.35-0.924,2.924
						c-0.381,0.575-0.418,1.163-0.406,1.811c0.013,0.648,0.235,2.068,0.246,4.099c0.013,2.031,0.049,2.459-0.16,3.033
						c-0.209,0.576-0.973,1.945-0.973,2.129c0,0.185,1.219,1.248,1.92,1.652c0.703,0.404,0.85,0.49,0.85,0.49
						S103.537,99.084,103.74,99.015L103.74,99.015z M102.151,98.854c0,0-1.686-1.052-2.191-1.663
						c-0.505-0.612-0.58-0.665-0.487-0.802c0.09-0.137,0.354-0.593,0.354-0.593s-0.616-0.514-0.776-0.27
						c-0.16,0.245-0.653,1.138-0.653,1.138c0.098,0.136,0.727,0.895,1.207,1.373c0.48,0.477,0.972,1.197,1.23,1.576
						c0.259,0.379,0.8,1.199,1.465,1.322c0.665,0.121,1.305-0.111,1.797-0.159c0.492-0.05,1.292-0.124,1.649-0.245
						c0.357-0.122,0.407-0.135,0.394-0.416c-0.013-0.281-0.049-0.416-0.049-0.416s-1.157-0.023-2.19-0.207
						C102.865,99.308,102.151,98.854,102.151,98.854z"/>
					<path fill="#FFFFFF" d="M138.789,139.996c-0.297,0.02-0.278-0.06,0.158-0.137c0.439-0.081,0.955-0.061,1.334,0.096
						c0.375,0.16,0.494,0.316,0.395,0.437c-0.1,0.116-0.238-0.04-0.754-0.159C139.404,140.115,138.789,139.996,138.789,139.996z"/>
					<path fill="#FFFFFF" d="M122.184,142.977c0,0,0.934,0.316,1.251,0.711c0.316,0.395,0.357,0.512,0.357,0.512
						s0.618-0.076,0.854,0c0.238,0.08,0.496,0.139,0.259-0.195C124.668,143.667,123.256,142.562,122.184,142.977z"/>
					<path fill="#1D2851" d="M113.076,103.249c0,0-1.59,2.331-1.908,2.843s-0.457,1.085-0.637,1.875
						c-0.179,0.789-0.297,1.678-0.297,1.678L113.076,103.249z"/>
					<path fill="#1D2851" d="M113.83,106.485c0,0,0.099,0.337-0.041,0.791c-0.137,0.454-0.912,2.862-1.052,3.196
						c-0.138,0.336-0.456,0.868-0.456,0.868s0.198-1.618,0.297-2.11C112.678,108.736,112.938,108.322,113.83,106.485z"/>
					<path fill="#1D2851" d="M120.713,136.837c0,0,2.145-3.435,2.921-5.468c0.773-2.032,0.376-4.264,0.296-4.481
						c-0.079-0.216-0.714,3.159-1.23,4.501c-0.518,1.342-1.152,3.16-1.291,3.691C121.268,135.613,120.996,136.375,120.713,136.837z"
						/>
					<path fill="#1D2851" d="M136.514,126.571c0,0,0.498,1.107,0.559,1.935c0.057,0.83,0.178,2.43-0.418,3.356
						c-0.596,0.929-0.953,1.618-1.172,2.153c-0.217,0.531-0.656,1.302-0.913,1.678c-0.257,0.374-0.636,0.828-0.636,0.828
						s-0.021-0.475,0.416-1.539c0.438-1.066,0.975-2.112,1.491-2.922c0.517-0.811,0.753-1.322,0.813-2.605
						C136.714,128.17,136.436,126.908,136.514,126.571z"/>
				</g>
			</g>
		</g>
		<g>
			<defs>
				<circle id="SVGID_3_" cx="118.469" cy="89.643" r="31.219"/>
			</defs>
			<clipPath id="SVGID_4_">
				<use xlink:href="#SVGID_3_"  overflow="visible"/>
			</clipPath>
			<g clip-path="url(#SVGID_4_)">
				<path fill="#13A8B7" d="M95.935,71.072c0.019-0.035,0.04-0.056,0.062-0.077c0.135-0.126,0.271-0.251,0.406-0.378
					c0.096-0.091,0.193-0.183,0.284-0.279c0.018-0.021,0.02-0.035,0.006-0.057c-0.187-0.317-0.373-0.634-0.558-0.951
					c-0.018-0.029-0.032-0.06-0.047-0.089c-0.005-0.008-0.013-0.018-0.006-0.029c0.008-0.012,0.02-0.001,0.028,0.002
					c0.089,0.032,0.175,0.075,0.261,0.119c0.297,0.153,0.585,0.327,0.874,0.496c0.035,0.019,0.071,0.034,0.104,0.053
					c0.025,0.015,0.033,0.005,0.038-0.018c0.016-0.076,0.034-0.15,0.06-0.223c0.103-0.292,0.24-0.56,0.466-0.766
					c0.324-0.294,0.694-0.473,1.113-0.524c0.412-0.051,0.804,0.025,1.17,0.233c0.427,0.242,0.737,0.601,0.929,1.078
					c0.11,0.274,0.163,0.563,0.163,0.863c0,0.063,0,0.126-0.006,0.189c-0.004,0.04,0.01,0.043,0.04,0.036
					c0.271-0.058,0.537-0.132,0.797-0.229c0.513-0.189,0.993-0.451,1.439-0.785c0.414-0.311,0.786-0.674,1.115-1.087
					c0.12-0.149,0.252-0.29,0.369-0.443c0.173-0.225,0.338-0.458,0.509-0.687c0.019-0.026,0.04-0.05,0.059-0.077
					c0.021-0.029,0.031-0.018,0.039,0.009c0.027,0.093,0.052,0.188,0.074,0.285c0.059,0.263,0.086,0.53,0.102,0.801
					c0.013,0.202,0.011,0.403,0.003,0.605c-0.012,0.239-0.055,0.474-0.116,0.706c-0.071,0.27-0.18,0.52-0.3,0.769
					c-0.126,0.263-0.268,0.516-0.407,0.771c-0.021,0.038-0.04,0.078-0.062,0.12c0.021,0.004,0.03-0.01,0.042-0.016
					c0.238-0.157,0.459-0.341,0.682-0.521c0.213-0.173,0.427-0.344,0.64-0.517c0.117-0.094,0.235-0.19,0.351-0.287
					c0.012-0.01,0.025-0.029,0.041-0.021c0.013,0.008,0.01,0.03,0.011,0.047c0.007,0.153,0.013,0.307,0.004,0.459
					c-0.008,0.127-0.018,0.254-0.036,0.381c-0.042,0.3-0.118,0.593-0.204,0.883c-0.068,0.231-0.173,0.444-0.271,0.662
					c-0.16,0.356-0.377,0.667-0.632,0.949c-0.158,0.178-0.333,0.34-0.522,0.48c-0.134,0.1-0.26,0.211-0.401,0.298
					c-0.199,0.123-0.395,0.248-0.613,0.323c-0.054,0.019-0.11,0.036-0.168,0.054c0.044,0.026,0.091,0.032,0.134,0.043
					c0.285,0.077,0.569,0.135,0.859,0.179c0.333,0.05,0.667,0.078,1.003,0.083c0.294,0.005,0.586,0.013,0.88-0.015
					c0.127-0.012,0.256-0.017,0.385-0.025c0.013-0.001,0.032-0.007,0.038,0.007c0.006,0.014-0.01,0.025-0.018,0.036
					c-0.099,0.118-0.209,0.221-0.327,0.315c-0.243,0.194-0.512,0.335-0.786,0.469c-0.241,0.12-0.489,0.216-0.741,0.307
					c-0.422,0.153-0.852,0.271-1.288,0.361c-0.25,0.053-0.505,0.082-0.759,0.096c-0.246,0.015-0.491,0.019-0.736,0
					c-0.602-0.041-1.183-0.177-1.739-0.421c-0.625-0.273-1.184-0.661-1.677-1.154c-0.424-0.424-0.781-0.905-1.076-1.442
					c-0.26-0.473-0.461-0.973-0.605-1.503c-0.057-0.21-0.104-0.422-0.136-0.638c-0.021-0.134-0.042-0.27-0.045-0.408
					c0-0.037-0.016-0.05-0.05-0.046c-0.27,0.032-0.542,0.05-0.812,0.095C96.225,71.039,96.085,71.062,95.935,71.072z"/>
			</g>
		</g>
	</g>
</g>
</svg>
