<?xml version="1.0" encoding="utf-8"?>
<!-- Generator: Adobe Illustrator 16.0.0, SVG Export Plug-In . SVG Version: 6.00 Build 0)  -->
<!DOCTYPE svg PUBLIC "-//W3C//DTD SVG 1.1//EN" "http://www.w3.org/Graphics/SVG/1.1/DTD/svg11.dtd">
<svg version="1.1" id="Layer_1" xmlns="http://www.w3.org/2000/svg" xmlns:xlink="http://www.w3.org/1999/xlink" x="0px" y="0px"
	 width="125.762px" height="125.312px" viewBox="0 -6 125.762 125.312" enable-background="new 0 -6 125.762 125.312"
	 xml:space="preserve">
<circle fill="#F7DFAD" cx="63.014" cy="56.359" r="50.206"/>
<g>
	<g>
		<path fill="#15A8B7" stroke="#15A8B7" stroke-width="2" stroke-miterlimit="10" d="M63.014,6.314
			c-27.642,0-50.047,22.404-50.047,50.045c0,27.64,22.405,50.045,50.047,50.045c27.639,0,50.045-22.405,50.045-50.045
			S90.653,6.314,63.014,6.314z M63.014,103.578c-26.079,0-47.222-21.142-47.222-47.22c0-26.077,21.143-47.218,47.222-47.218
			c26.077,0,47.219,21.141,47.219,47.218C110.233,82.437,89.092,103.578,63.014,103.578z"/>
		<path fill="#F7DFAD" d="M63.014,3.312c-29.301,0-53.049,23.749-53.049,53.048c0,29.298,23.748,53.049,53.049,53.049
			c29.297,0,53.048-23.751,53.048-53.049C116.062,27.061,92.311,3.312,63.014,3.312z M63.014,106.411
			c-27.645,0-50.055-22.409-50.055-50.053S35.37,6.307,63.014,6.307c27.643,0,50.052,22.408,50.052,50.052
			S90.657,106.411,63.014,106.411z"/>
	</g>
</g>
<circle fill="#DE4427" cx="63.014" cy="56.359" r="42.588"/>
<g>
	
		<text transform="matrix(0.7256 0 0 1 25.9202 75.6077)" fill="#993321" font-family="'HelveticaNeue-CondensedBold'" font-size="34.8722">TRUMP</text>
	
		<text transform="matrix(0.7256 0 0 1 24.7561 74.4436)" fill="#FFFFFF" font-family="'HelveticaNeue-CondensedBold'" font-size="34.8722">TRUMP</text>
</g>
<g>
	<g>
		<path fill="#FFFFFF" d="M89.412,80.754l-1.731,1.602l0.986,2.146l-2.06-1.154l-1.733,1.603l0.459-2.314l-2.06-1.154l2.346-0.276
			l0.462-2.317l0.988,2.146L89.412,80.754z"/>
		<path fill="#FFFFFF" d="M82.301,86.777l-2.083,1.109l0.412,2.324l-1.699-1.64l-2.083,1.108l1.03-2.122l-1.698-1.639l2.34,0.327
			l1.035-2.124l0.41,2.324L82.301,86.777z"/>
		<path fill="#FFFFFF" d="M73.898,90.792l-2.298,0.54l-0.196,2.353l-1.224-2.02l-2.299,0.54l1.539-1.788l-1.224-2.021l2.179,0.915
			l1.544-1.789l-0.196,2.354L73.898,90.792z"/>
		<path fill="#FFFFFF" d="M64.738,92.524l-2.359-0.06l-0.785,2.227l-0.673-2.264l-2.357-0.06l1.94-1.341l-0.672-2.264l1.875,1.438
			l1.946-1.341l-0.786,2.228L64.738,92.524z"/>
		<path fill="#FFFFFF" d="M55.455,91.893l-2.268-0.657l-1.325,1.954l-0.075-2.359l-2.268-0.657l2.219-0.803l-0.074-2.359
			l1.449,1.866l2.223-0.802l-1.326,1.953L55.455,91.893z"/>
		<path fill="#FFFFFF" d="M46.622,88.904L44.6,87.689l-1.782,1.551l0.53-2.302l-2.023-1.215l2.351-0.208l0.53-2.301l0.924,2.174
			l2.354-0.206l-1.782,1.55L46.622,88.904z"/>
		<path fill="#FFFFFF" d="M38.86,83.777l-1.649-1.687l-2.115,1.048l1.096-2.092l-1.65-1.688l2.327,0.394l1.095-2.092l0.345,2.338
			l2.329,0.396l-2.115,1.049L38.86,83.777z"/>
		<path fill="#FFFFFF" d="M34.4,33.331l1.64-1.696l-1.107-2.086l2.122,1.036l1.64-1.697l-0.326,2.337l2.121,1.035l-2.326,0.41
			l-0.33,2.34l-1.106-2.085L34.4,33.331z"/>
		<path fill="#FFFFFF" d="M41.166,26.91l2.018-1.227l-0.542-2.298l1.789,1.541l2.017-1.226l-0.909,2.178l1.79,1.54l-2.354-0.194
			l-0.913,2.18l-0.542-2.299L41.166,26.91z"/>
		<path fill="#FFFFFF" d="M49.333,22.42l2.264-0.669l0.062-2.36l1.337,1.946l2.263-0.669l-1.436,1.873l1.338,1.945l-2.228-0.788
			l-1.439,1.873l0.062-2.359L49.333,22.42z"/>
		<path fill="#FFFFFF" d="M58.355,20.174l2.357-0.073l0.659-2.267l0.799,2.222l2.358-0.073l-1.863,1.447l0.799,2.222l-1.953-1.328
			l-1.867,1.446l0.66-2.267L58.355,20.174z"/>
		<path fill="#FFFFFF" d="M67.683,20.285l2.3,0.526l1.213-2.025l0.21,2.352l2.3,0.527l-2.169,0.928l0.209,2.352l-1.553-1.78
			l-2.174,0.926l1.213-2.026L67.683,20.285z"/>
		<path fill="#FFFFFF" d="M76.642,22.751l2.09,1.097l1.688-1.648l-0.396,2.326l2.089,1.098l-2.334,0.343l-0.397,2.328l-1.047-2.117
			l-2.338,0.341l1.689-1.648L76.642,22.751z"/>
		<path fill="#FFFFFF" d="M84.698,27.436l1.742,1.592l2.053-1.167l-0.975,2.15l1.741,1.591l-2.345-0.26l-0.976,2.15l-0.477-2.314
			l-2.348-0.264l2.053-1.167L84.698,27.436z"/>
	</g>
	<g>
		<path fill="#FFFFFF" d="M94.779,39.691v1.08h-23.94c-0.305,0.722-0.725,1.381-1.254,1.984c-0.531,0.604-1.147,1.125-1.851,1.565
			c-0.701,0.441-1.472,0.783-2.309,1.025c-0.838,0.243-1.715,0.365-2.634,0.365c-0.917,0-1.794-0.122-2.632-0.365
			c-0.837-0.242-1.603-0.584-2.295-1.025c-0.693-0.44-1.305-0.963-1.836-1.565c-0.531-0.604-0.949-1.264-1.256-1.984h-23.91v-1.08
			h23.561c-0.034-0.106-0.062-0.221-0.08-0.338c-0.019-0.116-0.035-0.229-0.054-0.337H36.101v-1.08h18.106
			c0-0.091,0.004-0.18,0.015-0.271c0.008-0.09,0.013-0.181,0.013-0.271H41.339v-1.053h13.084c0.218-0.864,0.582-1.661,1.095-2.39
			c0.514-0.729,1.139-1.359,1.877-1.891c0.737-0.53,1.565-0.949,2.483-1.256c0.918-0.306,1.891-0.459,2.915-0.459
			c1.026,0,1.999,0.153,2.917,0.459c0.918,0.307,1.745,0.726,2.483,1.256s1.364,1.16,1.877,1.891
			c0.513,0.729,0.878,1.524,1.094,2.39h13.14v1.053h-12.95c0.018,0.09,0.026,0.181,0.026,0.271c0,0.091,0,0.18,0,0.271h18.16v1.08
			H71.298c-0.018,0.108-0.03,0.221-0.04,0.337c-0.009,0.117-0.031,0.23-0.066,0.338H94.779z M62.793,45.199
			c1.1,0,2.134-0.189,3.105-0.566c0.972-0.379,1.823-0.891,2.552-1.539c0.729-0.648,1.301-1.404,1.715-2.268
			c0.414-0.865,0.621-1.791,0.621-2.781s-0.207-1.922-0.621-2.795s-0.985-1.633-1.715-2.281c-0.729-0.648-1.58-1.156-2.552-1.525
			c-0.973-0.368-2.007-0.554-3.105-0.554c-1.098,0-2.132,0.186-3.104,0.554c-0.973,0.369-1.818,0.877-2.538,1.525
			s-1.292,1.408-1.714,2.281c-0.424,0.873-0.636,1.805-0.636,2.795s0.212,1.916,0.636,2.781c0.422,0.862,0.994,1.618,1.714,2.268
			s1.565,1.16,2.538,1.539C60.662,45.01,61.696,45.199,62.793,45.199z M62.793,31.537c0.991,0,1.928,0.172,2.809,0.514
			c0.883,0.342,1.651,0.806,2.31,1.391s1.175,1.273,1.552,2.064c0.379,0.793,0.567,1.639,0.567,2.539
			c0,0.899-0.188,1.741-0.567,2.522c-0.377,0.783-0.895,1.469-1.552,2.054s-1.427,1.049-2.31,1.391
			c-0.881,0.342-1.816,0.513-2.809,0.513c-1.008,0-1.947-0.171-2.82-0.513s-1.64-0.806-2.296-1.391s-1.174-1.271-1.552-2.054
			c-0.378-0.781-0.566-1.623-0.566-2.522c0-0.9,0.188-1.746,0.566-2.539c0.378-0.791,0.896-1.479,1.552-2.064
			s1.423-1.049,2.296-1.391S61.786,31.537,62.793,31.537z M62.793,44.065c0.938,0,1.814-0.156,2.634-0.472
			c0.818-0.316,1.533-0.748,2.146-1.297c0.611-0.549,1.093-1.188,1.443-1.917c0.352-0.729,0.525-1.507,0.525-2.335
			s-0.175-1.611-0.525-2.351c-0.352-0.737-0.832-1.381-1.443-1.931c-0.613-0.548-1.328-0.98-2.146-1.296
			c-0.818-0.314-1.696-0.473-2.634-0.473c-0.937,0-1.812,0.157-2.632,0.473c-0.819,0.314-1.53,0.748-2.133,1.296
			c-0.604,0.55-1.08,1.192-1.432,1.931s-0.526,1.521-0.526,2.351s0.176,1.604,0.526,2.335c0.352,0.729,0.827,1.368,1.432,1.917
			c0.603,0.549,1.312,0.979,2.133,1.297C60.98,43.908,61.857,44.065,62.793,44.065z M67.412,36.613l-2.269,2.215l0.513,3.132
			l-2.808-1.484l-2.835,1.484l0.54-3.132l-2.27-2.241l3.159-0.459l1.404-2.861l1.402,2.861L67.412,36.613z M64.144,38.558
			l1.296-1.242l-1.781-0.271l-0.811-1.619l-0.783,1.619l-1.81,0.243l1.296,1.27l-0.297,1.782l1.594-0.838l1.593,0.865L64.144,38.558
			z"/>
	</g>
</g>
</svg>
